/* XPM */
static char *_c0412191fc448b3e2bc6d660a550cbfNSoLQejhkDXf8C6I[] = {
/* columns rows colors chars-per-pixel */
"128 128 32 1 ",
"  c #040204",
". c #2C2E2C",
"X c #0C1604",
"o c #444244",
"O c #141214",
"+ c #14220C",
"@ c #0C0A0C",
"# c #4C4A4C",
"$ c #040604",
"% c #343634",
"& c #242224",
"* c #04020C",
"= c #1C1A1C",
"- c #444644",
"; c #4C4E4C",
": c #3C3A3C",
"> c #242624",
", c black",
"< c black",
"1 c black",
"2 c black",
"3 c black",
"4 c black",
"5 c black",
"6 c black",
"7 c black",
"8 c black",
"9 c black",
"0 c black",
"q c black",
"w c black",
"e c black",
/* pixels */
"&>=O=====>>==>&&&&&=&&&=&&&&==============O@OOOO>>&==OO==>>>>&&>&&&&>>>&&>=&=====&&>>&&&=====OOOOOO===&>>&OOOOOOOO@@@@@@@OO==>>>",
">=OO===>=>>==>&=>&>&>>>==>>>===>=====>=>&=OO=O=O=>>.=O=>&>=>&>&>&>>>.>>>>>=>>=====>>.>&>>===>===O==>=>>.>&==OOOO=OO@@@@OOO==>&.>",
"=OO====>&>.>=====>&=&>%>==>>>>&&=====>===OO>>OOOO=>&>>>&>=O&&&&=>>&>&&&>.>.>>>===>&>>&>&=OO=>======>==>>>>========O@@@O===>==&>>",
"=OO==>>>>&&=======>&=>&>==>%.>>=========O@O>&OOO=>>>>>>.>O==>>>&&&>==>&%.>>&&==>===>&&======>======>&=>.>&====O==OOO@OOO==>>==>>",
"==>>+&>.==&===+=>=&+&&&>>=>...>>==+=O+OOX@@+=OXOO=>&>======>>&&>>>=&>&&>>%>===>=+=&&>>=>>+==+==+==+==>&>.&===+==+=OXOOX=O=>>==&O",
">>&>&>>&====+===&+=&==>&===>>>>>>=OO=>=O@@OXOOOOO@O====O===>>.&>.===>.>>>..&=======>==>&=======&=>=====&>&>>======O====>=+===>=@",
"=O&>&..>=====>>>==&&&>>>&=>&&>.>&===>>=O=@XOX=OOXXOO==O==+>>.&&&&===>&>.%.&>>&===+==>>>>&&==>==>&&&+====>=&&&====>==&+====>=+O==",
">>=&>>&====+>>>.&==>>>>>>==>%.>>=====>=+=X@@OOO@OOOX===+==>>&>>&&>&>>>>..%&.>>=====&&>>&>&+>==+&&>&&==+===&>&+O=>>+===+.:.>>&OO=",
"&&=>>>>==O==>&=&&&>>>.&>>==>>>&====OX==&=OO@OXXXO&+O======>>.&>&&&>>>&.>%&&>>&====+&&&>&&==&===&&&&&>&====+=====>=====&%:%=&>=O>",
"==+>>>&==O===O=&&&&>>>>&>.%>>&>===&+==>>>=O+OXOOO====>>>=>&&&>>.>&=&==>>&=&>&>===>=&&==>&+==>==>&>&&&===+=====+====+==O==>=>>>>>",
"O>========X=O=+=&>&>.&>.o##:>>========&&&>==OOO=====>>>==>&>>>>&==+&==&>.=&>.======+=&=&===&>>=&=&>&>=+&====+===>======O=>>>.&>&",
"=&=OOO==XO==X==&&>>>>>>%>..==.&====+O>.>.>===OOO===>>>>>>&==>&.&==&&=>>&=&&>>==>>=>&&=+&&&+=&&+==&&&&&&&&======&=>=======>>>>&&>",
">&====+===+O====>&>>>>>&==O==&&====&:#o..>>==XOO>>>>>>%>>&>=&&=&&==+=>.&&&>%>&>&&>>===&&>&&&===&&>&>&>&&>===&&=>&&&+&>==+&>.&&>>",
"&>>>=======O===>&>>&>&&>&=====>=>>>.%%.>>>>====O=>&>>>..&=&>&>=&+=====&&&>>>.&>>&>&=+=&&>&=>==>=&&&&&&>&&+==>&>&&>&==&==O===&&&.",
">>&>=+=O===O=>>&&>>.&>>>>&====>>&&>==.>&&.>===O+=>&>>.>.%&&=&&>&&=&&&&&=>==&>>>&&>=O==&&>>&====+&&>=>&&&====&&&>&&&&====OO=>>>>&",
"=%=O==OO+==O=>&&>>>>>>.>&>====>>>>==>>>.>>>.&==O+==>>&>>>&=>==&&&>>>>>&>&>=>&>&>====>==>&&=O=+&==&&&+&+&&&==>&&&==>&+===+O=>&===",
"=>OO=OXO=>:>=>&&>>....&&=====>>>=>==&>=&>>>&&==@@OO====>&==&>=+=&>>>.>&&&>>>&&&>===>&===&>=X=&&===+&&==>&==+&&>&>==&====O=>&&==O",
"&&O@XOO=>--.>=>>>>..>&======>%..>&=+=&&=&>>===+OO====>&====+==>>>>>>>>>>&=>>>=>>===>=X=>&==OO>&=OO==>>&&>===&=&&&>=+&===OO>=OXO=",
">>XOOO==>:&&&>>>>>...&&&>====:-o:>O==.:%=&&====O=+=>>&=====&&&.>.>>.>>&&>&&>>&>.===+===&>&X@O&>=O==>>>======>=>+&&&&&==+OO>O@O@=",
"&>&+OOO=====>>&>..>>.&>>>==&+=.#o===.--:&======+===>&======>>&>>>&>>>>>&===.>.>&===OOO==>=OOO==>==>>>>&...>>&===>=>&&=====>=$@OX",
"==>>&====>=>>>>.>>&>&&>.>.&==OO=+O&>=========+==O==========>>&&>>&>.>.&&&>&>>..&=OOO==>&&XOOO==>&=>>==.-;;%==+&===&>+=====>=$@@O",
">=>.&==+>>>>>>%&&.:..>.&&&===X=&O&>>>&=O===+=O==O====+O=+===>&>.>>>>.&>&&&&>.>>=====+&=>==O@O=>+>&======&&========+>===+=>>=$@OO",
"==&&&>>=>>>&&>>.:#o.&&=====X===>&>>.&=X=>>=O===O+==+=O@O======>>>:::.>>>.&&>>>>==>===>====OO+===>&=====>========+======>>>>O@OXO",
">&>=>>==>&>=>:%...&&=O&>=>=OO=OO=>>=$===>=OO>=XOO==OO@OOOX====>.:##o>.&>>&=.>..&>&==>=+===OOO==>&======>==+===+========>>>O@=OOO",
"=>&O>.>===>&>o.>&=OO==.&&&O=O==+&>=O=====O=+=OOO====OOX=O=>>>>>>..>>&>.>>&&>>>>=&>>>>&=O==+OO==>===OX==>>===>>=======X=>=>>>=@+O",
">>>=>.>=>&===>>>>==>.=&>&===OX>=&>O=O>>==+O===OO+==+O>=>>=>&>&&>&=&.>%&&.>>>>&&=&&&>&>=O===OO=>>O+===+=>&=>&&======+===>=>&=OOO@",
">&==>>=>&====>>===>>&==>.&>+=O&&>.&===>=>&&===O=====O====O=====>&>>>%.&=&&&...&=>=>=>>>==>==+>&==>>==>>===>>>O>>+========>==OOX@",
".>&>&&=>&====>>>&=>&===&&>&OOO>&>>&>>>>>>>&===>>=+=..===O=>>==>>>.>>&.&==>&&.>==&&&=&>&=>&>==&>===>==>>>==>>==>==&====>>>&OOOXOX",
"&>&============&>.======>&=OO@=>>=>&===>&===>>&>&.:#-.>+O=>>=+&&&>..&>%&.>>>.&&=&>>=>&>&&>=>&&+>.-:==>>>==>&=====>>>>==>>>=O==OX",
"&>====+==>+=O=>&&>&===>>===OOX==>&OOOO====>>&&>>>oo:::>&=>&>=>&>..&.%&.>>%..&>&==>&===&>&&&+>>..o:>=>>=>O=>>>>=>=>>>===>&==X=+OO",
">>======+&=OO>>>>.>&==>>>=+O=OO=>O==O+=O=>&&>>.>>>.:..&>&>=+>>=>&&>>.%&.&>&...&==&>>=+&&>>>>&>&&&===>==>=>.>:>=>>>&>==+>>O=====O",
">.>>=+====OO=>>.&>>===>&=&&OOX@==OOO=OOO===>&>>>>&.>..>===&>>==>=&>.&.%&.&%&&.&===>&&=&&>>>>.>&&>=====>&O>%.>>>>>&&===>.>===O==O",
">>>&=========>>>>.&===+==>=OO@XO=OXO=O===+===&==&=>.&.>OO>>>.>>>>>&>.&&..&.&&>>>=>&&&=>>>>.>>>&====+==>&@O..>=>>====+&=&>>>=OOX=",
">&>>====>>=>>>>>>>OO=OO=====OXOO===+O=>>O@O=====>=>.>=OO=>>>&&&>>&&>..&..&&&&.>&=>>>&>>>.>>..&&=======>&OX=>&&&>>=====OO=>=O+===",
">>&=>>>=>&>&=>>>.=@@OOO=====XOOOO+====>>O@======>>>%&=OO=>&>=&&&>>>.&>%.&.>&&&>>&>>>.>>>&&>>&&&=====>>>>=OO==>&>=>==>&>O=>>=====",
"=&>=>..&&=>>>&>>&O@OO+OO==XO@OOOOO===+>&====>>>+&>>>==O=O=>>>>&>>.&&&&&%&&.&&>%&&>>.&&>&&=&>.&===+>>&>>OOOOX>&&&===>>>>>>>>&==>=",
"===&&>>>>>>.>>>>&@@OOOOOXO@@OO=====+==&>>>>>>>&===>&&=XOXO>>&O=.>&&==&>&.&&>&>.....>>===>=O&>&====&>>>O@OXOO=>&=>=>>.%>>>>&>>O>>",
">&=>&.&=====>&=>=@=O+%.=OOOOOOX=>>=>&>&&&&&>>>===>&==OOOOO>>>O=>&>.&=.>>&&&&>%>.&>....=&&=O=>&===>>>.>>=OXO+=>>>.&>&>..>.>>&&==>",
">.&&&>&====>&==OOO=>:-:=OOXOOOO+&==>&&&>>>&>>>==>&===OXOOO>>.&&===&>&&&>&&>.>..&.&.&&>&&>===>&=>>>>.>..==+OO=>=>.>=>.%.>.>&>>>>=",
">=&&&>=======>=OOO=:%.==OO+OOO+&>==&&>>>.>>>>>>>&==OOOOXOO=>>&>>==>>>==>&..>%.&.&.&==&.&=====>==>>>.>>.=O=OOO==>..>=&.....>&>>>&",
"&==+&>==+==+=O===+OO====XO==+===&>>>>>>.&>&>>>>&===OXOOOOO+>>>>>&>&>>>&>>>..&&&&.&&&>&&&=+==>&=>>>.>>.>=OOO=O=>>>%>>>&>.>>.&>>&&",
"=>&>&>>=&===OO===>====+======O=>&&>.::.>>>>&>>&.>==OOOOOOO=.>>.>>>>.&&>.>&.&.&=&&&.&>&&&&===>==&>>.>.&.=OOOXO==>&.&>>&>&>.&>.>&>",
"==&&>&=&======+==>>======+=OO=>&=>:---..>..>>&>.>==XOOOO>+>>>.&>.>.>=&&>&>.&>&=&&=>>=&>&>=O=&>==>&&>.&&=OOOOO+=>.#o&>..>>..&>>&&",
"=>=>&>&+&>==+===>>=====+====+=>=>&..>..>....>&>&&>=OOOOX==&>>&>.&>&>==>>>..&.&&&>&&>&&&&&>=+&&>====&=>&OOXOOO>&=>..>>>...&..&>=>",
"====&=&>o->==O=>=&O==+==========>&&>>>.&>....=OO=&=OOOOOO>>.&&&&&=>.==>.>..&&==>&.&>&&&=>&===&&+&====>&@OOOOO>>====>%...&>.&.&&=",
"==+==+&%#:>>=====>=======+=>=>=>&>>.>>>.&...&=OO=>>=++O+O>&>&&&>====&&&>>.&&.&=&>>>>&>=+&&&==========>=@XOO+==>>=>=>...&>.&.&>&=",
"=>&&==&>>>>>>=OO===>===+===>>&>&>&>>>.&>....&&=O=>>=OXO=O==>>>>&====>.&.>&==&===.>>.&==&&&>>==========>=XOOO==>>&>>&>...&>>&>.&&",
"=&>=====>>.&&>=O=O=>>>=====>&&&>&>>..>.&&.&&&>>O=>>=OOOO=>>.&>&>===>>>&.&=&=====>.%.&&=&>&&>>>=O==+==>&OXOOO+=>>&>>&&.>>.&.>.&&&",
"=>>==>>=&&&==OOO+==+&&=>>===>&>>>>>%..&>....>>.==>=OOOOO=>>>>>&====>.&>.>&&=====.&>>&==>&&>&&=+O====>&==XXO+=>>&&&>>>>.....&.>>>",
"=&>>>&&>=====+O=O==&===>===>&>&>>.>..&>.%.&>&>>=====+OOO+>.&&>==>==>>&&>&=>====>>..&====>==+&&=O===>====OOO==>&>>>%>..&..&.&.&>&",
"=>>&&+==>&>+&&>O====>>>&==>>=&&>>&>..&.&.%.%&.>=====OOOO>.&==>O====>>&&>.===>>>>>.>&&>&>&=======>>>==+=OXO====>>&>>&.>..%&..&.>&",
"========&>&=&>&==+>>>&+>==>+&>&>>>>&.&>....&%&..==OXOOOO=>======O=:--o.>&>==>=&&>>&&&&&=>&+===>>>>=+=====O======>&&&>.&..&.&&.&>",
"===+&==>>=>&==>>>>>...:&==>&&&>>&&>.&>.&..%&.&>>OO=OOOOOO===>=====>.:o:.&>.&&&=>&>&>&==>&&&==>>>&=&==&===>>+=====>>>&&&..&&&&&&>",
"O===&&=&>===>&>>>>.%o-o.===>>>>.>>>>.&&.%.&.&.&==O=+OO+O+=>>>>>==+>&=>>>>>>>>>&>%>=&.===&>&==>>==>&==>>>+=>&>===>>&>>>.%..&.&>>>",
"O=+==>+&>=>=&=>>>>>&.:-%==>>>>.&>...&>...&.&&&&O===OOO====>>=&===>>&>>>.>>&.>>&>&&==>&=+&&==>&==>&+==>>>&&>%.>=>>&>>.&&&%.&.&.>.",
"==OO=&&>&=&>>=&>.=&===.>==>&>>>&&>.&.&>&.&&&O==O=>=OO+===>>>=>&>=>>>>>>>.>>>>>>>&=&&&=====>&=>=>&=>==>>>>.>...>&>&&>&>>>&.&&&>.&",
"===OO>>>==>&===>&&>>==>====>>.>&>>&>>.&&>..===O=>=OOO=O==>>.&>>>=&>>.>.&>.&.&>>.>=>=======>&>&&=+&&=>>.>...>>>>=&>>>>&>:&&&&>&>>",
"==X===>>>&&>&>>>&>>=>=>&>>&>>>>>..>..&&>.&&>oo.===OO+==+=>>>>>>&>&>>>>>.&>>>...>====+&==+&&=&>+&>>>>.%%>....>.:&==>&&>>&>>&>.&&>",
"==OO=O=>>=&&>>>>&>====&=&>>>>.>..&&&..&>&.&.:##&O=O=O=====>...>&&>>.>.&&.&..&&&>>====&====>&&&>&>.>>%:.......:.>==&>>>.>..>.&&&>",
"=OOXOO=>>=>>==&&>&===>=>&>&>>&>.&&>..&>..&.&&&&OOOXO======>>>.&&&=&&&>>&>..&====&>========>&>&&>>>&.%.....%.:%.>>>>>&>>..&.&>>&>",
"OOOOOOO=>>&==>&>&==O=>&&&&>.%>>.>&..&%...&&&==OOOO==+==+=>>.&>&&=O====>&&>>&==&=&==>======>&=&>>>>&:%%:....>.:.%>&=>>.&&....&>&&",
"OOXOO>==>&==+========>=>>>>>...&.&>....&&&>&&===OOX==>>==>.>.&&>=OO==>&.&>.&&=O@O==>=+==+&&&+>>&>&>%.:%&&.%...&>&>&&>>.&&>&&&&>>",
"O@$O=>>=>====&>=>===>O=>>>>%>.>&>.&&&.&&====&&>=+OO==>&==&>>>.>&====>&&>>>>>.>&=O@OX=&==>&>&>&>>>>%:.>==..:.&.&&&=>&&&&>&>.>&&&&",
"O@@OO=>==+&>=&>=>==+===>.>>>..&&>&&&>&.&=O=&&&&=OOO=>&>=>==>&>>&>===>&>>&>&=..%.>=O@O===>&&&&>:%%.&=OO=&%&>.%..%.&=>>&&=&>.&.&&>",
"OOOX==>>==&&=====+======>.>..&&&>>&>.&&=======>=O===>&&&>>>&=>&>>=>>&&&>&>&>..::.>>>=@O=>&>&>>:.&=O=&>>=&&=>.%..>>==&&&==&>>&>&&",
"@OOO&+&==OO>&=+=======>>>>>>.&&&>.&&&&==&.=O==+OO===>>&>>>&>>>=>&=>&>&>&>>==&&.:%.>>>=OO=&&>>>&=O==..>&O===&%..&&&===>>>==&&&&>&",
"@O+=&&=OOO==+=======>>>>>%>.&>=>>&&&==&>>>========+>=&&&=>>>>&====>>&&>>>.&=&&>&>:.>===O@+OO=>OO=>>..>&===>>..&=&.&=>>&>>&==&&&.",
"O==>>&=OXOOO=OO===>>+>>>>>&>.&>>.=>>==>>>&>>>&>=======>==>>&>.==..>>&>=>>>&===>&=.:.====OOOOO@@=>.:%>&>&>=&..&%&&&=>>..>>.&=&>>>",
"@OO==>=O=OOO>.>.==>&&.>>&>>&>&>>&&>&=.>&&&&>&&&+=====>==>&>=&>%-;:&==&>>===>&=>&>&:.&=====>>=OO=>>.%%::%&>&>.&&&&==>>>>&>&>&=&>>",
"O@@X=>===OOO=-;;.=>=&>>>&>&&>&>&.>&>&&>&>&.>&>&=======>O>&>>>&%:>=>===>>>==>&OO>..:%.>==>>+>>==@O>&&.:o:>>&>>&.&>&=&>.>&&>.>&>.>",
"O@@O=>>=+OOX@=.%>==+&&==>.&&>&&=>>==&&..>&>&&&&======+&===>..>>&O=>===>&&>==>=OO=>.::>==>&=>>>=OOO=>==>&>&&>>>.>>&&=>>&&..>>>=&>",
"@@@+======OO===>=>===>>==>>&&===>&==>=>>&>>.>&>===+======>>>&>.&>=>>=====>===>>=OO=>%%>>&=>&&>>==OOOOO==>>>=&.>.&&&=.>>&>>>>>==&",
"OOO=====O+==+==>===>>>>===>>>=====>&>>>&>&>&&&=+=======+=>&=>>&>>&>>>>>===>==>..=OOO>:>&==&>=>>>>>=O@OO=>>&>&=>&&&>>&&>>&&.>>.&&",
"OO+=OO=+======>&>=O&%:%.>=>====>>&>.&>.&>>&===&====>=O===>=>>.&==>.>>>>=>>&>=>>>===OO=&&=>&>&=>&..>=OO=>===>==&&&=>&==.>>&>>.&>.",
"O==OOO=O===>>>&&>>>&>:##:====>&>>.>>>.>&&===&>&====>=X=====>>>&==&>>.>>=>&&=>>>.=>>>=O@O+=&>>.&=>..>=>=O===>>&>===>.==>>.>>%&>>>",
"OO=+==+OO==>>>>&>>>O=>:#:==>&..>>>>>.>&&====>&+====>+==OOO=>&>>=>&>&>>.&&>===>.>=>.&>&+OO@O=>>>>>>===>.=O===>&&=&&&>&=>&&>&.%..&",
"=======OO+=>>.>&>>>O>.>>>==>>..>>>.&>&&.&.&&&====>>>>&=+OO===>&&&>>.>.>>&>===>.:>>>>>>&==OOOO=>:.>=X=+:>=+====>&&>&&>>.&>.&&&..>",
"O=+=O=OXO==>>>>..>&&>>.===>>.>>>>=&==>>.>>&>===>=>>=========>>===>>>.&.>>>===>>.::.>.&=====>=OO>>..=O=:.========>.>&>>.&&.>&&&&&",
"===OOO====>&>.>>>>=>>>>&&==>>...&=&&==&>>&&=+==&>===O===O+==>>>=>&&>&&&>>>>>==>&.%.....&>>=>==X=.>%.>=..==+====>>>>>.&>>>>.&&&>>",
"===OX=+====>>>&&.&=>.&&&>=>>..>>==>.===>========>=====+===>>>>>>=>>&>&&>.>>=>===>%.:::%>>>>>==O=>=%>>>>>=====+==&&.&==&>>>&>>>%.",
"=OXOO===O+=>.==&>>>>>&=>>=>..>=&==&>&===========>========>>>>==>=>:=>>>>>&==>>=OO=>.:.&>&>.>===O>&>=>&>>===+=O>>>>>&===>>>&&.>..",
"=OOO=OOO===>&&>>>.&>.>&>>>>>&=&.==========>>====+>>==+==>>>&>=>>>.-%=>&.>>>&>>>>>OO=>%>===>>=OX@O>&===%>=&=>=O=>======>==&&&&>%&",
"OOOXOO=+=>>>==>>.o:.>&&>>>>>==&&========>>>======&>======>&&>>>>>>-#>&&&&>>.>.&>>>OOOOOOOOOOO==O@@OO=>.&====>=O>=========&==&>..",
"OOOO====>&>=====&%o#%>&&==&&======>===&>=====+===>>========>.>.>&>:-..>>>>&>>&&>>&=>>==OOO===>====O@===========>===>=X=>====>&>>",
"=OO=+===>=>>>>====.:>.&===>&==>==>====+====+======>==+=>=O=>.>&>&&>.>&&>.&>..>>>>>&&>&>>===>>==+==X=OO=O=======>===>=OO>==O=>&>>",
">OX=======>>.>>====>>>>.>&&>>=>>&====OOO==============>>>+=>.>&.&>.>&>.&>.>%&>.>.&.>&=>&=&=>&=====O+O@OOO======>&>>>=O=.>>==>&>&",
"=OO=======>>>>>>>>>>.&&.&&>&&>=&===+=====+=====+===+===O=&==>.>&&>>&&&>>.&&>...&>>&&>&>>&&+=>===+==O=OXO=+==+===>>&>>O=>&==+&>.=",
"=OO+===>>>&>&>&>&&>>..>&=&>&>>&==>=====O===>==>=>=O====+>&===>&==&>..>.&>>.&&&..>.>&.&&=>==&&>====O=+=@@=======+=&>&>==>>=O=&&&O",
"O@@===+=>>==&>&>>>>>&&&==&&=>>>==>==>==+===>=====O===O=>&>>>==>&==>>.&>..&&&&>.&.&.&&>&&===&>&>===OOO=OO=O===+===&.>>>>O=XOO==OO",
"OOX=O===>&==>>>>>>.&=====>&>>.=>&+==>>==>>>=====OX=O+O>>&&&>>>=&>==.>&>.&>.>&&>=&&>>&>.&====&&>>==X=OOOO+OO+===>%-;.>&&+&=OO====",
"OOO=OOO=====>&>&>.&&>>>>>&&>>>>&====>>>=&>=====+=>=O==>>>>=>>>>>>=&&>>&>.&>&&&&&>>>>.&&>>====>&&==OOOOOOO@=>=>>=>:%&==&&=&=O=O=+",
"OOOOOXOX=>>=>>>>>&&&&>%.&&&&>&>>>>==>>>>>====+==&>>>===>>===>>>&>&>>>.>>&.&&>&&&>.>..&&>&====>O>==XO+=+==*O>&====OO===>&=O======",
"OOXOOO==&--:=&==&.>>>>>&&==>>>>.>.>=>=>>>=========+>>===.::.&&>>>&=&>&&&.&.>&&>&&=>.&&>.==+====>=========O@>>==>===O>>>==>>>=+>&",
"OOO=XO===>o;.=>.>>>&&>&>&>=>&&>>>..:>=>>>===+======.=>>=>%;;:=>.>&======&=&==&&.&&.%>&>>=======+&=+>>==O+>==>=====O=>>&==>=&>==>",
"OOXOO==+==>.>=>:-o:&=>&====>>>>=>.:-:>.>&======>>=>&=+&=>&>:.>>>>>>=>==>&&===>&>&>>>.=>&=====+===========>====+=OXO=>>=>>==>>=O&",
"OOOO======>=>=>&.##.==>==>=&>&>=&>>>%>>&=====+=>%-%>>>>&==&>>&>.&>&=&=>======>&>.>>&&&&==>>>=====>===>============+=>&>>=O>>&=O>",
"=OOO+====>>&&=&>=.:.==>&=>==>&=&.%>>=>&>&==+====>o#:.>&&===>==&==>.&&>&=>====>>>>>.&>>&============>=>=+===OX=>>==>=&&&>==>>==O+",
"O=+===O+==&>&===>=>&==>==>==&==>>>.&&.&>>=======O>:.=======>==>==&&&>>>&>>>>=>>>.>&>&>>>======+==>+&>>=>===OO=>&>>>==>>>>>>==O=&",
"O=O===OO>>>=>==>&&&>>==>&&==>&>>>.>=>>&&&======>==>====>>=>+OO&==>==>&==>====>..%..&=&&>====+===>>&&==>&==+OO=>>>>&==>>>>=O=>=>>",
"OOOO=+OO==>&>>>&&>&.>>=&&>>=>&>>>>.=>>>&>>===+=========>=+=>OO==>===>>>===>==..>>.&==&&&>=======>>>>=>&>>==O=+=>>&&>=>>>.==O=>>>",
"OOOX==O====>>>&&&>>.>>>>=>&&&=>>>.>&>.&>&&=====O=+==>>=======O>>===>&>>>=>&>=.%&=&&====&&====>===>>&&&&+=======>&>>>=&&>&===O=>&",
"OO=:::====O>:.=>&&&>>.>&&&=+==&=>>&>>>=>.&>====+=&=>+.&+===>===&==O=>&>>>&>>>>.&=&&========+==>=+&>>>==>====>=O>&>.>&>&>>>=.+&=&",
"OOX.#;.O+O==-o>=>==>>>>&>>&&&====>.>.&.&>>===>===>&&&&&=&>>>>O>O+>==>&>>>&===>>>&>&&&===+>>===>&=&>&>>=&>>=+&==>&>>>>>>&>>>&===>",
"OOOO>:>O====>%>====&&&>>&>&&===O=%.&>>>&>&>=====>&>>&>&==&>>>>>==>===>&&>&>&=>%.>>>&=>>=&&&====>==>&>&>&&&>&&=X=>&>>=>>=>>>=&==>",
"OO=X=OO=======>>>>=>&>&=>>>&===O=&>>.&%.>&%-.>==>>>>>&>=+>....>=>>===>&>>>>>&>>>.>.=&>>==>>>====+=&&>&&&>+>&===O==>==>>&>&&=====",
"OX@O=====+==+=>>>>=>>===>.&===+===>>>.&>&>&o;#>>&>>>>>&===&>.>.>>>>==>>>.>>>>>>.>>>=>====>&=======&&&==>&&.&=>..=O====>=>>>===O+",
">OO===O+=====>&>==>>&===>>====O>>>%&>>&.&&=>..>&&=>.&>=====&==...%&>.>>>.>.>&>>>.&>==>>=>&====>>&=>>>=+&&>&&&=.-%===>>>=>%>=X=O=",
".=OO=+=O======>=>&&====>>====O=>>>>==&>>>&======>&>>>>>&==>=&=>:.>>>..%..>&&&.>>.%>==&==>&>===+&&O>&&==&&&&>+==>>====>>==&>>O===",
"=OXOOOO==+====>>=====>>>::.>>==>>&>.>&>%>=>=>>=>>>>>=&&>&>>>>=>-%>>.&>>>>&===>>.&&.>=====&=+===&>==>&>==+&>&=>>===+==>&>=&>&==>>",
"=OOO=OO+====+==&====>>>>.#--.>>O=>>>>....&&&>>==>>>=&==>&+&>>>>o%>.&>>.>..&==&>&.&=.&=>=+=======>>=+&&&==&&==>&=>>=>=>&>>=>>>>>=",
">=@O=X============+>>>>==>:->>&==>%>>>.&&>&>&&>>>>&>&>====>&&&>:%.&>.&>...>===.&>&=&&==&&&>====>O>&=&>>==>>==>==>>&>&&&>=>&&>>>>",
"O=XO=====+======+==&>.>=======O==>>>.&=&..&&...>&=>>>=====>>>>&>>>..&&.&.&====>>.=====&>&%-&>==>>>>==>>=>.::>===>>>=&>>=&&>=>&>&",
"==OO=+=OO==OOO+===>&>.&====O==>>>>>.>.&>>.&=..%.&>.%&>===>>%>>.>.>.&&>..&&====>=>&====>&&:-&===>>>>>&>&=>.--.>>>>>&=>&&>&>>&>&>>",
"OOO==OOO+=OOO+==>==>>>>>.>=O>>.>>>...>.&&&==&....>.%>>>>=>>>>>>>>.&&>..&=&=====>>&>&>>=&>.:===+=&>.>&>>O&%o:>&&>&===>+>>>>>>>>==",
"OO>o:>OOOOOOO===>&>>.>>&>==O=>>=>&&&..&>&&==&...&&..>&>>>&>=>>.&.&>...>>=>==&==>&>>.>&=======>=&>>>>&>>==%%..&&=====>&>&.>>>>>&=",
"==+.-:O@OOOO+O==>>>>&>>>>==X==O=>&>.&==>&&==&>>&>&=>.>.>=&&&&&>>&.&>.&.&&&===>>>==>>>&=+==+==>=&>>..&=>>>>:.&========&&>>>>&.&==",
">>&O==@@XOO+OO==>>>>&>.>>>=O===>>>>>&==&&&==>>>.>==>>>&&=>&=>&>..&>.&>&&>=====>>==&&&.===&==>>&&=>.>&=>%>>>>&=>>+==+&>=>&&=&>&>=",
".>.=O@X@XOXO@O===>>.>>&=>.&==>>&...>>..>====>>&&&=>>.&&&&>>=&>.&>..&>.&=====>>>.===>&>.....&===>=&&&>&>>>.>>.>>&=>==&====>==>===",
"&>&=XO@XOX@OOO=+=>>>>.&&&&&>>.>&>>>&>>>>&>>=>.=&&=>>>>===>>>&>>.>.&..&&&&>>>>>>>>&>%%::-::::.>===>>&>>.>&>>>.>>>>=====>>>&======",
"&>&=@OOXX@@O=O=.>&=.&O=>>>>==>=>>.>.>.&.>===>&=&>=>>&&&=>>&>>..>>&.&.&&.>>%&==>>>::%.>>.%..>....>&>>.>>&&&.>>>.>&==>+=&>>>======",
">>&>O@@OO@XOOO==>>>&=X=>.>.====>>.&&>&>>>=======>==&&>&=&&>>...&.&>&>.&.>&.&=>&.:%.&==&=&==>>>..>>>..&&&=&>>.&&>>=====>>&>===>==",
"&=&>O@OO@X@OOX=>>>&O&=>&>&======>%>>.&>.>======>>>>>=&>&=>&&&&>>>.=>%&>.>>:%%%.:.>==>&&=&>>>>===>&>>&>>=O=>>>>&>>>&===>>>>>>>==+",
"===>>@OX@OOOO=+.&==>&>&&&==OO===>..&.>>>.=====>>.>&&==>>=======>.&=&&..&=&.:%:.&====>&&==>&&&>=>>>.>.>&OO>&>...>.&>===>&>=>>>===",
"==O==X@@@@O+O==&=&=&>&>====OOX=>>.>....&&===&+=>>&&===>>=====>&&&&&=&>>====&>&===O=>=@OOOOOOO>&...>>>.OO>&&&=&&>>>&===>>.>&>>>==",
">=OXOO@@@@OOO===>&====>====+O=>>>.&...&.&=====&>>>===>.>&>>>>.>>&&=========>>.&>===O@O==>===OOO>.%.&==O&>>>>&&&>.&=>>==&>>>>>&>&",
"&=XOOO@@@@XOOO====>>>>=O====>>=>>>&&>&>>&&===>&=>&>==>.>..>.>.>>>&==>=&OO====&==OO@@XOOOX===>==OO==OOO&>>>&>==&&&===&>&>&>>.&&&>",
"==OOXO@$@@O=+OO===>&&====+==>==>>.&>&.>&&======>>&==>...>..%>>&>>.>&&==OO==OOOO@@@X>>==>>>.>.>>>OO==&>>>.&=>===>&===>>&&&&>.>>>>",
"==OOOO@@@X+====+==+>&===>&>====>==>>>>&&===>=+&>>==>=>>..%>>>&>.&>>>>==OOO=====OXO=..>==>>...>&>=>&=>>.>.>O&>&==&>==&>>.>>%>.>>>"
};
