/* XPM */
static char *_5c34ed36cf14ad88f109bc77a163b68HiXmkKWYO3BaUGf6[] = {
/* columns rows colors chars-per-pixel */
"128 128 16 1 ",
"  c #1C1A1C",
". c #343E24",
"X c #4C4E4C",
"o c #2C2E2C",
"O c #543E2C",
"+ c #2C361C",
"@ c #242224",
"# c #444244",
"$ c #545654",
"% c #3C3A3C",
"& c #4C4A4C",
"* c #343634",
"= c #242624",
"- c #444644",
"; c #5C5A5C",
": c black",
/* pixels */
"#&&X##&&#####&&&-&##-%*%#-%=o%#%%*%#%*o%%*%###-&#%##*%####%#-%%##%*##-#%%##-##*%*#X&&-%%%*%o%#&%*%**%%%%##-####-##%#-%-&&&#-&-#-",
"-%--&---X%-&-X&--%%--%o*%%#%%-%%%%*%**oo%%%XXX%##*%%*%%-#-#-#-#-%%%%-%*-%%*-#-##%%-#--%%-X#%-#-%**%&**%-%%-#-#%-#%*%%###&-#%#X&#",
"-%%--&-;-##--#--#--##-%*%%-#-%%%%%%%*%%o%**-&--**%%%%%%%**%%%%%%%%%%%o%*%%-#%%***-#%#%%--##%%%#%%%%%%%--%-###---%%*-o#--**--XXXX",
"#-#-&#--#--&###%-#######-%##%%%-%%-%*%*%%%%#-&#%o-%*%%%%%--#--#--%%%%%%%**%ooo*o***%-*XX-#-**%%--#%*%%%**#%---##--#-&%#%%%%-##&-",
"%#-XX&#---&-%-%%##-#-%%*%-****-%****%%%%%-#%*%#%*%**%%--%-%*%%.##%-.-%%%%%%*%-o=o%=o-%%#X*%%**-#%**%%%%*%%-#-%%--X&#---*%%%%X-##",
"-%-&&--####-%--%X---%*o*%%--%%-%%-%*%-%%%%-***-%%%o%*%--***%%*%%%**%#%***%%%-##%%%o%%%%-%%#%*%-#-#-%---&--#-&X##-#-%%%-#*%*%X--%",
"#*#--&--#--*%--&-&*#--##*%%--#-#.*%%%%-****-#-%%**%o*--#%%-%%-#-#%%%%%***%*%*%%%%##%**-#%-#-&#%*---%-#----%-&&#o%-#-#--#%%----##",
"%*-#-&-&%%--#--#-##*%*%---####*%%%%#--%%*-#%%**%o%%%#%%-%%%*%-**-%%%*%*o%-%X-**%%*%%-#*%%%-##*%-#%%%#*%%--#-----####--#%%%%X$;&-",
"*-#%%###%%%-$-&#-#%-#-#%%-#.%%*-%-#*%#.%%%-*%%%*%--#.*%#-%%#.-%o%%*%%%%*%%%%-%%%X%o%*-#%-##-#--#-#--%%**-%-&--&-&%-#-%#.%-X-#-#-",
"%#-#%%%.%--##-##--%-X--%%%%%%*%*%--*%-#*%*%%*-#%-#%#%*%X#.-*%-%o%%%%%%%%*%%*%-%%*%%*%%**--%**%*#*%----%-#%*-&-#---%%---&&-X-%---",
"-#--#-#%-#%&###--&##-##-#%o**%%**%%%--%%%*%-o*%%---#-%%##%-%*%o*o%%*.%*%%-o%%%%-%*%-#*%%*%-#%o*%*%-#%*-%%-%%#-##-&---&-%%--#-&-#",
"-#-#%%%-%*---o*#&--#%%##.*=oo%*%****%%%%%-%%%*-#%X--%*%-#*%*%*o*%*%*-%-%%*%-%--%*#---#*%%o%o*%*%%**%o%%%%%**&%--##--&---%-&-%#&-",
"#-#%%.%#%%**%%-#-##%%.*o%%%ooo*o%*%*%*%%%%-%%-*%%*%%#%-#-*%*-%*%*%*%&-*%%o%--#*%%%%%-#%%-%%**%%*%o***%%%--*%###---####X&#-#&#-XX",
"##-%%%-#-%%--&&#%#-*%%o**%o%o*@*%*%%***#*%--#%%%--%*%--##%o***%%**%%%%**o#--X%%-*o**-#----%%%****%**%--####%--&--#----&###----##",
"-#--#--#---X-----##--*o%*oooo%*%#%%----*%%%%-*%%%%*%-%#-*%*o%*%*%%%%-oo#%*-%*%%--%*-#%%%##---#o%*%%o*%#--%--#X;-&-#######-#-#-#-",
"%###-%#----#X&###X-###%%*oooo%#**-**#%%%----#---%---#-##--%*o%*%%*%%%%**%%%%%**--#-%%o%---X--###%%o%o%--#---&#--&------*%--##%%%",
"%%%-#-X&-&X&-#--##%-----o%o*%*%##*%**o-#**-***%**%%%##%-*%%*o%#-%=o#**%oo*%*%#%%*%*o*%---&X&---#--o*%o*#%-##-####-##&&-&#--%%--%",
"%**-###-X--#-%-#*-**-#-%%*%*%###-*%%%%#X%*%%%%%%*%--#%.%%**oo%%-%*%**o%o***#-#--%*%o*%--%%%-%-#---%%o%%%-%%#-%.%-#-&-&-%--X---&-",
"-%*-#-#X##-##-&#%%%%-%%-%*%####---#--#%*-%o%-%%#%%--*%%%%*%**%%%%oo%%o*%o%*%*%%-*-%o%*%#%--&#**#-&-**%%%*--#-%%##--##--%%#$X&-%#",
"&-%%#--#---&#-##%**%%%-*%%##X##%%%-%#-%%%%%*---#%%*o%%*%-%%o%*o*%o%%%*%*o*%o**-*%-#-%%--####-%%-#&&%%**--*#-%*%%--%#&---%o%##%%%",
"$$#**-%-#-##%-----&o*%*%*%o#&-#%-#--%%%--%%*%-*****%%%-*%-*o%*%o*%**%%%*%%%%***%*%X-%-#----%--&-##---%%-&%%--%*%-#-#-&-&-&%*%-XX",
"&--%%--#%-&%----##**%-#*#-%%--X---#-%%%%-#%%**%%%--%-*-%*%*%**%**%o*%%*%%%*#--oo*=o#%%%---&#%-#---#-#-%*---%-&-###%-#--#-#-#--&&",
"#%-&--#%%**%%--##%*%##-#%*-XX#--&&----%-#%%-o%**%%--*%%-*%oo%%*%*o%**%o*%-%*X#-##o%#%%%%#-#-#-%-&&X---&*%#-%%-#-#--#&X#%-#%%%-##",
"%-#%%#-%%-**%%-#-%%%-%%#-%###-%##%-#&-%----#*-%o%%%#**%%%o*o%*%*%o%****--%%*o*%%%%#%%%---###---%##-&%-###%-%-###--#---%--#%*%--#",
"-#%%%-#---#%*%-%*-#-*%--%%-#-#-#-###---##---%%*%%%*%%%*%*o==o%o%*%*%*%%----*%#%%%*%%%-##-#---&#--%#-%%-#X#---%%-#-----#--#--##%%",
"--%-#-###%-X--#*%-#%%--&*%-X-&---%-&-#---%----%%%****o*%%%*%%%*%%***%**%oo*%*%-#%%*%%.%%-#*-&&-&-----#-##-%%X----%%-&-&####%%-%-",
"#-##%-#---%-##*-#-#-%-#-#%--&-X&&&--#-&-#%%**%-%**o%*%*o%%*%%#%#%%ooo%%%*%o***%%%%*#%%-##---#-X&%X&&*-#--#-%#-X%-%%--#%#-*--*---",
"&--%%-*%-%-***%#%%#-##*#---&&-#%#-#%%-%%-#-%%-%**o%%%%*%o*%%%-#%%%*%*o##%%%%%oo*%#***%%%-#*--#--&&&-%-%%%---%##%*%%-#%%*%%X#-##-",
"%#--%%--%--#%**%**-%*-%--#%--%%%-#-*%%%%%%%%***%%%%%%%-***%%---%%-**%*%#%%%%%-%%oo***%%-#*&#%%-%#-#%%%--#%-#%*-#%*%%%%%-*%%##-%#",
"-###-*--*%%***%%%%%--#-##%%-#%*%-##*%%*%***o%*%%-%*#%%%oo%*---%%-%*%*%*%%%%%---%%*o*%%-*%-%%%-%%-%*-*%##-%%--%%--%-%*%-%-%-*%%-%",
"%%%-#-#*%--%%%X#%-#-&-##-*-%%-%%-**%*%%%****%%*%%%%%%%****%%%*%%%*%%*%*%-%%%*-#-#-%*%%%%*---#%%--%%--%%-*%%-%%o%-%--%%%-%-#--*-#",
"-#.#--#%-%%o%##%%----&#----#%%%-#-%-%--%**o*%%-%%%**.%%*%*%%%*%%%%%%%*o%#%**%%%%##-%-**%*----%%-%---%%-X---%-%*%%-*%--%-*-%#%-%#",
"--%-##-#-%o%##%-##--&######-#*%-*--#--%*o%*%%%%%%*#%*%*o%%*%-%o--%%-#o**%%%%%%**%%*-&%***%-#-%%%*-#%#%**---%---%%-%*-#-*%-*%%-#%",
"&-##--#%&-*#-*-#*%-#&---*%%#%%%%%%%-#**%*%*%***%.%*%***%*%*%-%***%%%-*oo#%%.&-%o**%-**-**%*%-#---%#-#**%-#-%%%-%-%-#%*%--*%-%*--",
"%#-#%#*-%%--%%*%%%-#X--%%-%%*X----%**%%%**%***%*%*o*%%*-%%*%%%-%o%%%*%*o%-%%%--%%%-%*%*%%**-##%-**-#*%%%%#-#o-##.*#-%**%%*%---#%",
"%##%%-#--%##%-%%--###-#%%-**%--%X--%*-%--o%*%%*o%o%-%*%%*%**%%**%%.%*-%oo%X-%%#--*o%%%---%%*%%%%--%*--%%-##%%#-%%%%#%%--*%-%#%%%",
"**%-##--%&-%%%%----%--#%-%*#--#-%-*o***%%%%%%-**%*%%%o%%%#*%#*%%%%%%*%-#o*&&%-%##-*%----%-*o*---%#-*-#%%-%--%.%%%#%-%o-%%##%%%%-",
"%#%%%-%%%-**%%--#---*%%%-*%-##*%%*%%oo%**%-#-%%%%%%%%ooo*%%%%*%%%%**%*%%%%%%--#-#--%-#*%%%-%o*%-*%%%*--%-%%*-#%%-#**%%%-#%%----*",
"#%-*%%%*%-*%%%--%-#--%o%-%%*----*o%&*%*%%*%%%%%-*%-%o*%o%%**%%*#%*%*%%%%**%%%*oo*%*%#%%%--#*%*%%%-%-%%#%-#-%-#-*%-%*%%o**-#**-%%",
"%**-%-%*%-%-%*-#*---#%*Xo%%o%##*%-#-%%*%%%%%%-##*%**=o%%%o%***-#-***%%-%%%%*oo**-%%%--#-%%*%%o**-%%%%*--*#.###-%-#%%%%%*%%-%%--#",
"-%%%-**%%%-%**---#--%*%-%%%--%-*--%%#%*%%%%*%-*%-%*%o%%*******%****%#*%%-*%-%%*%%%%%%###%oo%%%%o%-*%-%**o-%%-*%%#-%%.--*%%---#%#",
"%-#%%%%--%--%--$####%*-%-%%X-#**%-%-%%-*o*o*%*%-%*%*%%%**%%-X%ooo%*%%%%--%o%-*%oo*%-%%%%%.*o%%%o%%%%%%o%%%-##--*%%--%-#%%-%%##%%",
"%**%-%%--*-#--##%#-X%%**X%=%-*o**%##-#*%*%%o*%%%-%%o*-*oo*%%-*%**%***%%%%-**-oo%o%*%--%%****%%***%%%-%%%%%-#%%%%-%#*%%%**%%%%---",
"-#%-#**-*%%*-###-#-#-%%-#-o%%o*oo%-%*%**%*%%***-%%o#%%***%****%%*-%%%#%%%-*o%%o**%%-#%o*o%%*%%**%%%-%%%.%%%%%%*--#--%*-%%----*-#",
"%-#%%%%-%--##%%-*%*%%%%-#--%o**o.%#---%%%%%*%*%%%%oo%%*%**%%%%--%%**%***o%%o%%*%%*%-*-%*%%%%-%--**-#%--%%%%%%%%%%%##%%%-%-%-*%-%",
"%*%-%%--*%%%%%%%**%***%%%%%%=**o%%%o****oo*o*%%*#%o-%*o*o**%%-$%o*%%%%-%%%-*%%%%%***%%%*****o*%%%*%%*%*%***%%*%*%%%%%%%-%%%*%-%*",
"-#--%--%-X%o*%*%****o%*%**#o=o%o%%*#***%o**%ooooo**%%*oo%%o**%%***%%%%-%%-%%**%%o**%%%**o*o*%o%**%****%o%*%**oo**oo*--%%%%-%%--#",
"%#-#%--*-X--*%#%-%%%*%--%%%o*o%%X&*#*%%%%%%%%%*%%%#*oo=%*oo*%*o*o=*o%%o*%%**%%%%%%%-*%%%%%*%%%*%%%o%#%%-%*%*#**#o*#*%%o%%%----##",
"--#%.##%-&##%**%-#-#%%-#%-ooo%%*o%%%*%*%#%#-%%%%*%**%-&##%*%##-#&%*%-%.---%*%%*%%*-%-%***%%%%%-o%-%%-*%-%%%%%%%*=*%%*%*o-%-#-##-",
"-#-##-#-%#-%--o=*%%*%%-#-#o%%%#-%-#%-#-%-##*---*%%o%---###*#%###-##-%-%%-#%%XX-%.%%*%%%*#--*%%%----*-#%%.%%.%%**%%*-*%-*--*-#*-#",
"%%-*-#*-###*-#%*o%%--%*%-**%%%-###%*%%%%%-#%%**%%*o%%-%%##%%---#----%--#%%-X--*--%%%*%%%-*%*%---*##*%%*%--%%%o%*--**--#%%--#%-%%",
"-#%%%-%-%%--#-*%-**-%%%%-%%%*%%%%%%%--#-##-%**%*%%%#*-#%%-*%-##-###--##-%%-Xo*&#%%%*%*%%%%%**%-%%#%*o%%--%%oo%%%-%%-%*-%%#*%-#-#",
"%-%*%-%#-##*-#%%%%o*%%--#%%-*%%---%--###-##-%%%-%o%--%%-*%%-#-#--###---#*%%-o*-#-%%-%%%.&-*%%%%%-#%%*%%-%%%%**%-*%%%-%%%*%*%%*%%",
"##%o*%%%-#-%%%-*******%#.**---%%*--##-#---*%%-%%%%--#-%%--%%%%%-##-##---%-%%%-%%*-%%%%-%-%----*%%%--**%-**o%%*o%*%-%%-%%**o*%%o%",
"---%%%--##%%%%%*%%oo*oo%%%%%%-#%--%%-#*-#-**%-%%*%---XX%%%*-%-*%-######%#-#X**%%%%-#-%%%%%#%#%--%%-%*%%*%*%=*%*o%%--%%*-%-%%--*%",
"%%**%%%-#-#%-%%%o*%*%*****--*%--%%%-#%-##*%%%%%%.&-XXX&X#*--*--%##-#%-#*%-#--%%--#***-%%-%%%%%%%--%-%*%%%-%%%*-%%*%-*%-----%----",
"-#*%*%%-#*-%-%%%%%o%*%%o**%#%%-#---#-#*%%-%#%%.%%#--&--&X-%-X-#-------#%*%-##%%*%%-%****-%%---**%-%--%*--%-%%*%%-%%%-%%%-#-*%##%",
"#-%%-%%%%--#-*%.%*%*%%%*oo%%%%%#*%-##--#%%%.---*#-#X-#X-#-%-X--&X&---#%--##-#-*%%%%%%%%%%%%-*%-%-#-##*o-#-**%%*%--%%%-%%%%%%%-*-",
"##%-#%--%%*-#*%%%%%-#%*-oo%*%%%--*%%%%-#%--%#-#o#-#--#%#%#X-#&#*#--#-#%#--##*-*%%%-%-%%-*%%%**----%*%o%%*--%%%%-%%%--%-%*-%%-%-%",
"--%-#.#*%--#-%%*%-%-#-%#%%#*o*%-*%%-%**%%-**-##%&--##%**-#-&#-%.&-##---#---#-#**#*%%---#-%--**%#-**%-**%%%%%#-%%%%-#--***--%-##-",
"--*##%%*%*%-#%*%%*%-*-#-*%--%%*-%*%----%-*--#%*%-&-#%*%%%#----#--#X--##%--%#---==*%-X-#*%-**%oo**%--#o%%%--%%-*%---*%%%%o%-*%---",
"##%-#**---##-%oo%%*--##%*-#--%***%%%----#-#*-%*%%-&#*%%---%*%*%######X&---&&-##oo%-%%-*-#%*o%oo%%%*%-**%%%%**--%--#-%*--%%-%---#",
"#%*%%%--##-*-%%--%*-##%****%#%%%o%%*%-###--%#%*--#&--#--##-*ooo%-%*--&&#---&X--*%#%*%%-#-%o%o=o-%%%%%o*%%#%%*--*#*%-%-%%---%-###",
"-%*%-%----%-#%*%%%%--#-*=%#%*%---***%-#%%-#--**-%*-&#%--##-&*%#-%*-##-----##%-##*%*%%-**%%oo=o%%%-%-#**%-**#*X#%%--#-#%%%--*-#*-",
"--%---#%%-#---*%%--XX--%o%#*--X%*%oo-#%%-*-%-*---#%--%-&----##-#-##X%#-&##%%%-&-%%%%-%*o--o@=##-%-#*-*%#%%%%-#X-%--#*%-----%---#",
"-&%%#**-#%%--%---%%X-X#%%X##-#--*%-%=*%-%--#%*#&-%%-*-##X#%%-&#%#%-#--##-%---X-#*o%--%o%%%*%#-#%%#--%oo%%%%X-X#-%%%%*%--*--%#--#",
"-#%-%o%%%-#-%*%**-%--#--%#-%%###%%-#*o--%-##*%--#-%#*%-#**--&&X&%%%%-#-X&%-#--#-%%%-#-***o-##%*-#-#*%o**%%%----%*%%-----*%-#----",
"-##***%#*-%%*o****o%-%XX%%-%%%-#--#%%%*o%-*-%%--##-#-%#%%%%#%-#---#----#-*-&##%%#%%##*%o%##-%-%%##%*oo*#o%%%---%o%--###-%--%-#-#",
"--%%%%*%-#%%%-oo%%oo%%-#%%-%%%---%%%%-%oo%-%*----###---%%%*%--%-%#-X#%##---#*%-%-#%*%*o%#%%%-#%%-**o%o%*%%-**%-%%%%%%%-#*-#%#-#-",
"&***%*%%*%%%--&-#----%*%*o---###-----#--**%*%X##-#%-###-*%*%X-#*%%-##%-#%##-%--#--***%%*--*--%-*%%%o%oo%%%%--##%*o*%%-X--#%%-##%",
"%*o%***%%*%--%#-%--##-***o-&#*%-#-###--&-%*%*%-%#--##-#-%%-%%-%--*%-#-###--%%-#--**%%-#%%--#-#%%%**%*o%%--%X-----%**%---o--%--%*",
"o**o%*%--%--X##%%##%-%%*o%#-%*%-#%-*--%#--%-%o%-X&-X-##%-%%-X;X-%*-#*-#-##%-&#%%o%*%*#--#%#%#--%%%*%o%%%---#-#--#X-*-%%-%-#%--*%",
"o%*%%%%#%----#--*--##%*%*o%-%%-#%-#-#*%--%%-%%%*-X&----*------##%-#%-%*%%%%*-%oo*%***%-%%%%-##*%%-%%*-%*%&--#%#%#-X-*%--%--%%%*o",
"o%#%#%*%-#---%-#%X#%%*%%%o*%%%-#-###-#-#%*%-%%--*#-&#-------%%-#-*-##---*-%*%%=**o%%%*-**-##*%-%--**%#-%X#----%--X-X%*%&-#%%%-#%",
"%*%*%%*%----%%#XX&-%%%*%-%*%-*-##*-*%-#%*%-#-*-##%%-&--#--#-##-#%-#-###--*%-%#%*%-#-%%%o%-#-%-&----%--#-%-&&#-##-;&-#%-#*%*-#*%%",
"%%%*%**%%-&-%%--%*--X%*%-#o**o*%%*-*%--&%%-#---%--%%%###-&##%-#%-##*-#*-#-**-##---##-*X%-#*--#--###-&--#----%##-#$X&-*%%%%%%%%*%",
"%#%o%*%%%--&%%#%%*%X----%-o%%*%*%*%%%-#-%---#-#%--%*o%-*-#-#-#-##%%-#%-#***%%%%*%%%-*=%%-*&-##*%-#*--&&X&&----###-%#-%%*%**%-%#%",
"%-*%**.---##-#-----&X&%--%oo%%#%*%%--#-#%---###-%--**%%#&--####-#-%%--#**#-#***o%---%%*%--#%-%-*#-%-X----#--&#*-##%%-X%*****%--*",
"#%%%*ooo##-#-##-#-&-&#--#**oo%%%-*%%#-#-*X-&#-#--#-%*%%*#-%---#*-#-##*****%-&*-&-##*&#*--#%--%#%%%*-##X#&-##---#--#--%*%*oo%%%%%",
"%-%*%*@*###-#-*%--#-%##-#%%oo%%%%%%-#***%%%#-----&#-#*%%*%####%*%-##%*%-%%-%------%o#-%%%---#---#*o-#-%#-&-&-#&---#%#%***o%*%%%-",
"%o%%*%*%--%--#%-&-##--#-X*%%o%%%%-%%%-**#-#%-#-&###%-#--%**%%-%%%%%*o%%-%-#%-#%#-#***%%---#-*%##-o=%#-*%-------&-##--**ooo%**#-#",
"-%-*%**o%#-#----#---#-X&-%**%o%%**%%*%**#%%-##--%-#%##%%-%%**---%ooo%%-%%***%-%%%%%#**##-#--*%-#%*%%-#--*%&-&-&--&##-*oo*oo%*##-",
"%*%%%*o=+%X#---%#-X&&&-%o%%%%*%-%%-%%*o*##%**-%%-%*%%-*%%*--%%%%%o*%*%%--*%*%*o%-***%%%*-%---##-*o--#X&&##--&#-&-&###%%ooo%%#%-#",
"*%---*oo=o#--&&---&-&X#%*%%##%o%--%-%*o**--%o*-%%*%%-%%-%**%%ooo#%o*%%**%%o%*%%%*%%%-#-*%-#%*%**o-##*%--&---&-&&---#%*%*o%%#%%**",
"*%%*%%%oo%%-&#-#X-##--%*%*-%-#**%*%-%*o-###-%%#-%*%-#-#%--%**%--XX*oo%**%***%-*%%-#%-#X-*%*%**o*%-#%o%X&--#&&&#--##-#ooo%#%%%%%*",
"%%*%-%o%%%%-#%%%-&---o%***#%--*oo%---*%---##-*%-%%%%%%%%*-#%%%%%-*-%*%o%**---#%-##%%*o*%o%**%%oo#%o-%-*%&--%-&-%-%*%*%**%#--#%%%",
"*%%%%%=%#*o#-#%*%%*##%##o%%%--#oo-#-*%-###%-#-%#%*-%%*o*%%%*%**%o%%%%%oo*-#%*##-**o%-%-*o*%%%oo%%-*&#%%*%%-%##**%%%*%#%%%###%%%*",
"%*%%.%%-#-o%%-*%%**%###-#*%--%%-%*#-**#----#*%%%-%%-%%o%%%*oo%#**%oo%%#%*.##%*%%%%%-%%%*ooo%o%*%%%*#%%-%%%*%*=%o-&#%-#*%%-o%-%-%",
"-#%-##-#*%%%-%---*%%%--##%*-#-%#-*%#%%-#-##--%%%%%*%%*%%#%*%%***%%*o*%%%*%-#---*%--#-#%-%*%=o%*o**%%%%-%o-%%-oo%##%%-*%%%*-#-#%%",
"%%%*%%-#%%---###*%-#%-##%-*%##-##%**%-%%*%-#*-*-%-%%*%%%**%%#*%%%%*****%*%-*%%-%%%*%-#-###%%%*%%%#*o--#-o=%-#%%#-#%--*%%-%%%#-*%",
"%%*o*-%--*--%%-%-%*--%%*-#%*-###--%%*%-#-###-%-*--%o*%%.%%--*%%%%#%%%*o*%%%%%-*****%-#-#-%oo*#-#-%%##-%%%%%-#--##-*%%*--*--#*--#",
"-%o%*%%-%*#&%*--#%*%--%%%--#%#--X&-**%%%##-#-#--#*%%***%o*%*%%%.-#%**#*o%%%%*oo**%o%-*o%%%=*o%-%%%o-#o*---###%-#%*%*%%-#%%%--##-",
"%-%%*%**%%o-#%-#%%%--#%-%*--%*--###*%*o%-#*%-###%%%**=**%****%*%%%%%**%**#%%#oo*o=%-#-*ooo*o##%**%***%-%#%-*%-#*%-%*%%%---##---#",
"#%%%**%*--*%-%**%%--#-*--%*%-o%---%%%%%**-%%-*--*%%o*o*=o%*%**%%%%%%%*%#%-%****@=%##**%**%*%#%-#*#*%%-#o%%---%-**%-%%%%%%-#---%-",
"%%*%%-%%*&#*%-**o*-%#--X-#%=%-*###%o%--**o%%-%%*.o****oo**%*%%%%%*%.-%**%%%*o**%-##%***o%*%o%##-#%%-#%-%-#%#*%-&-%%%%%%**o--%%%%",
"--%%-#--%%#-%##**%*%**&#%%-%%%-%%%o*--##oo*%--*ooo%#%*o%-%*%**%%%%%-#%%*%-%*o%%--#-*%**%*%#%%%%-%%#%%%-##-#-%-#%%-%-%.%#%o-##%-#",
"##---#%%*o%#%--%%%%%-%%-*%%--%*%-oo%-%%-*%*****o%*%%*o%%%%%*%%%%--o-%%*%*%%#*o*%*%%%%o**%%*%%%*%*%%--*-#####%%**%oo-%%-#-#%#-**-",
"%%%-##%**%%%-*-#%%-*-#%%-%%--%%**%*-#%**%*%***oo%*%%%*%%-***%*#%--#%%--%*%%%%*%*%o*-*%*%%.**-%*%---#*%-#-*%-%**%%o%%%%-#%%%---*%",
"*-#**%O%**-*-%*%-*%%-#%-#-%%#---**%-%-%**%ooo%%@oo%%*%**%%*-%%%%**%%*-%%%%%%%%oo%*=%%*oo%*o*%*--#-X#--##-%%%%*%%%--**%#%--*%%-#%",
"##--%%--%*--%-%%%%o%%%---*%----%-%#-##-##%o%*%*%%**o*%*%*%%%%%%**#%*%%%%%.%*.%%*-*o%o%*%*o%*%*#--##-%##*%-%*---%%%o*oo*%-#%%%%%%",
"-#%#%--*-&%#%%-o%--o*%*%%-X--%&-**##%%-#%*%%%%%%##*o*o%o**%****#oo*%*****o%%%%-#%%*%**%*%%%*o%###-###-%%--%%*%*%--oo*oo%-#%--%%%",
"##**-%#*%-%--%--*%-%*%%%----#-#-%%-#-#**o*%#%%##%%##%ooo%*%*%--oo%oo**o*o%%%%*%%%-%*%%o%%%%#oo%-%-#-#--%%%%%-%--%%%=o%%*%%-%-%--",
"%%%%-*%*%%%-%%##%*%-%*-----###--*####-*%oo*#%*-#---%%%***%%**#%*-%%*o%%%%%-%%%--#-#***o*%*%%%%%%%-*---#--%--*%%%**&%=o*%-#%%%-*-",
"-*%-#o*%--##-*---%%%%*%-#-&#---*%#-**%-%%%%%*%-#%-%%%*o%%*%#%#-#%*%-%*%%%-%%-%%#***%%o%#-*%*%*%-##%oo*%*%%-*%%***%XX%*#-%-*%*---",
"%%-%*%%*o%-*%%%-##%%-%%%-#%##-&*%#*%%%---%--%%%%%%%-%%%%%###-###-%---%o**%%---%-%%-%o%###*o**%=%-*%o*oo=-oo*--%*#-*%%-###--%%%-%",
"*%*%**%%*%%%-%%-*--*%--*%%-#--%*%*%#-%*-##%#--%%%%-#-#%*%%-%##-*%-##%%%%%%%-%%%*%-##-%%%**%==*o*%-%%oo*#%%%-#--%##*o%%%-%*-X;-**",
"%--*%-%-*%-%-%%--##-*%--%*-#XX%o%#----%#-*--%-%%--*%%**--%#*%---%%*%-#-#%%*o*--%%%-##-*-=%#oo%oo%%%%%*&--%%%-%%-#%o=o%-%%%--X%#%",
"%-#%%%---X%**%-###*%-%*--%%%*%%*-##-#--%--#%%o----%-%*%-#---#*---#-##*%%*%%%%%-#%%-#*%-%%%***#%%#*o----%%---&-%*-%**=%-#%-%*o-#-",
"--%%---###-*%%*%%---#-%*%-%o%---###*%-#-#%---%%%---*--##--##%%-%%##-#---%X-%%*o%--*-%-%%-**%%-#-#oo##%&#%%-&XX%%%*%%%%%%%-#-##-X",
"%%%---%%*-#%%-%-#-#-%--%*--*%%--#--%*&-----&--%%*%###%%--#%%%--%%%-#####-#-.%*o%X-%%%--#%#%#%%%*%%-#%*o----&X&-%X-%-%%--##*%-X;#",
"%%-#-#%%*%-X-%-%--##%-%%**#%-%%#-#--%XX&-&--&----%%-#%%--------#-------#*o**%%%%-%%--*%-#-*%-#%**#%-%*%*%%-***-#%-#-%%----*%-##-",
"%*%%XX*-%%%-#%%-*%%%%%--##%-&--%%--&--%##-&##%%#--#*-%--#--##-#--#----#*%o%*%%-*-%-#*%%-*%--##%*%-*%--&-###*%%--%-#-#-%%#%-%--%-",
"X%%-#%%*%----**------####--%o%X#-%-#-%*--##---%%---%%*%#-#---&--X##-#%%%%*o%%%%*%-*%%-*%-*-X%%%-#o**%##--#-#%%-#%-%-##-#-----#-#",
"&--X%**---%%-%%-%%-###--#*-#-*%&X&#%##-&-&#%-#-%%&%%%*%-#--&#%X-&---#-%-*%%%-%%%-#X--%%--*&#*--#%%%%%--%#-#-#%#---%--#---&%##---",
"-X-X%***##*%&&--%*--*o*%--*-&-%*---#%%#%#---#%#-%-%*-%%%-#&--#%####--#--*%#*-%*%-##%#**-%oo%-#%***.**%%*-###---#----%------%#&--",
"-&-%%*%%%-*%--&#%%-#%%-%##-%-&%*%---#-%-#-#--#%###---%%%-#-##---#-#-#%-*%%**%%%%%*%--%*-%o%%*o*%--%*o%*%-#-%-#-----##--#-X&-&-&&",
"-##*%o%*%#--X-#--%#%-#-X*--%%---*%%%%-##**%-##-#-#--#--%%-*-%-######-#%*%%%%%%--%--*%%%*%%**%o%%%%%*%##-##**-#*#&-%-&##-X&-&X--&",
"&&-o*%%-#---&#---#---#--%--&#%%%%%#-**%%-%o%%%%%-*--#*--**%%-#o%X#-*%*%%*%%-%.%*o*%%---%**%*o%-%%%%*%%#--%%-#-*%--#----#*-###-#-",
"#-#o%*-##%#-%%#-&#--##--##-#--%%-%*%%%**%X--%%*%-#&X%-##-#%%X-%-X-X-*%-%**-%%o*%%*%-%%%*%-%%*#%%-*---o=-#%-%##%*&-&#&X-%-%%X---%",
"##*%**&----##-#-&X-----#--#%----%%%-**%o**-#-%%-#%%%*%%-#--*-#-#%%**%%%*%*ooo%%-%--%%**---%o*%*oo%%#**o%%-##-#-##&&XXX&X-%&-%---",
"-X%o%%&&-#%%-##----##%*%-#-#----#%--**o%-%*%**-*--*%%-*%-*%*o*****%oooo**%#*%%%%%%%%-%%%%oo%-%*%%--##%%%%#--##*--##---&X$X#-XX-&",
"XX$**%&-#%-##--#-%%#-#-%#%#-%%&-%%--###-##%%#%*%--%*-%*%-*o%o*o%*%*o%%%%*%-%%%%%*%--*%*%%%**#-*%%*#-#X--###-#X-#--#X-#&--##X$&&&",
"&&&-&&&---%#%--###---##-#%-#*o%--&--#-%####%%%%%%**%*ooo*-%*%o%o%*o%#-%%%%%%%%%%%-*--%%-%%-#**-#*o%*%%##-##*---##-#--#%-%-X-&X#*",
"&--#X&-&-&---%#--%-#&--#-##-*%*-#%-#%*%-#--%%-%%%*--%-=oo%%%%**%*%%%%-%*%%---%-*%%%-%%%---*%%-%*%*%-***%%%%*-----#-##%%*-#XX-&#*",
"-&&&---#X&%----*o%#X$&-%#-%**o*%%%%%%%%%%%%**--%%-&%%%**o*-#%%**%%%-#%%***%-*%*%%-%%*%--#*o%%%-*%o%-#-%%-%--#%%-##-%%**%%-&&##-#",
"#-#-&&-#X&&&-#-#%%--%#-#-%%*%o*#%%%%*%%%%--**%--%-%-%*%%-%%%--%%##%%%**%---%-%*.****%---%*oo%o%%o*%%#--%-##*-%-%%--&*%%#--%*%%%-",
"-%%--&&#&--XX&-#---%###-#%o*%o%-%%o*%%-%%%%%--%*-%*%%-*%---###%%***%%----##%%*%--%%%-***%*o%o=%#%%*o%--#---####-%----#-X###%oo*#",
"%*--#-X--&-##X#-&#%-#-*%--o*oo%%%%%#.-%*%*%-%---#%-%%-*%###%-#*%-*o%-%-##-*--%%%%%--%%%*ooooo%-#-#o%%##*%##-#%%-**-&#%-##-&X%%#-"
};
