/* XPM */
static char *_b6e0be36df2448db7fb56bce894abeaQ6fHrWcOMPa6Loxi[] = {
/* columns rows colors chars-per-pixel */
"128 128 32 1 ",
"  c #040204",
". c #3C462C",
"X c #242224",
"o c #646264",
"O c #2C361C",
"+ c #545654",
"@ c #443224",
"# c #141214",
"$ c #4C4A4C",
"% c #342A14",
"& c #747674",
"* c #3C3A3C",
"= c #0C0A0C",
"- c #444244",
"; c #2C2E2C",
": c #6C6A6C",
"> c #343E24",
", c #4C3A24",
"< c #040604",
"1 c #242624",
"2 c #343634",
"3 c #5C5A5C",
"4 c #1C1A1C",
"5 c #4C4E4C",
"6 c #3C2A1C",
"7 c #7C7E7C",
"8 c #444644",
"9 c #6C6E6C",
"0 c #4C3A2C",
"q c black",
"w c black",
"e c black",
/* pixels */
";*2*22*22*22**************************-**-*-**-----2####+5553=444#4#444444#####4#######+$8-5=###2*2;*;2*2;;;;1;;;;;;;;;;;;;;;;;=",
"22;;;;;;;;;;;;;;2;;;;2;;222;222222222222222222*****2;11435+53X11111111111111111111X1114+8-8+1X142**2*2*2*2****************;*;2*=",
"X************************8*88*88-8*88-88**88-88-88-;11;4+5553X1;14;1;1;1;111;1;1XX41;14388$$1;14**;22;2;;;;;;;;;;;;;;;;;;;;;;;*=",
";;4XX1X11X11X11111111111X1XXXXXXX;XX11X1;1111111111*111435553X111111111111;11111;1;X114+$885111422;;*2;;;;;;;;;;;;;;;;;;;;2;;;*<",
"2;;;;2;;;;;;;;;;;;;;;;;;;;2;;22*22*2**;*2**********;111435553X1X;1111111;X11111111111143$8$311X4**2;**X*;;2;2;;;2;2;2;2;2X;;2;*=",
";;2;;;;;2;;2;;2;;;;;;;;2;;;**;;*2*222*2*222222*222*211;4+5+53X1111;1;;1;X1;XXXX;X111;14+8$8511;42**;*##2;2;6;;;6;;;6;;;*4#12;;*=",
";;;;;;2;;;;;;;;;2;22;2;;2;;;2;*222*2*;22*2*;****2**2111435553X;111;XX;XX;X1;X1X1X;1XXX4388$51114;*2;*11**;;;;2;;;2;;;2;*;X*;;X*=",
";;;2;2;;2;2;26;;2;;6;;2;;6**;*22*22*2*2*222*2*2**2*;1;X435+53X11;X1;XX;X;X;X1;X;X1X1X143$8$31XXX2*;22-*2;;;2;;;2;;;2;;6;**2X2;*=",
"2;;2;;6;;;6;;;;2;6;;;;6;;*2*22222*222222*22*****2**2####35533=44444#44###4#4##4#######=+$8-$=###2*;;*2**;*;*;6;;6;;;6;;;;;;2;62=",
";;2;;;;;2;;;;2;;;;;;2;;;;;*2*2*2222*2*222*;*2*2****2####35553=###X###44#4*;;**;;*4#4##=+8$8-=###***2*222*2***2;*;**;;;;;2;2;;;2=",
";;;6;2;6;;;2;;2;6;;2;*;2;;*2*22*2*2222*222********82####355+3=#######4441-*;*2;;*;#4##=3$883=###2*22*2**-*2*2*;**2***;**;;;6;;*=",
"===============================#--------$----888888*111#3+$531;1141;111X;**;2*;***41114+8$8+11142*;*222*2*22*2;;;;;;;;;;*;;;;;*=",
"*8-8-$8$--$$$--$$$$-$-$-$$$$-$$-#***2**2**;*2******2;1;435553X111111111XX*2;*2;2*2X1;1#+$8-5;X;42**2*2-*222***X******;;2;6;2;;* ",
"****22*22**22**2***2***********--#*2222222;*2******2111435+53X11;1XX;11;1**22*;***X1114388-31XX42*;2***2*-*22*;;;222;;*;X*;;;;*=",
"#=4*2*2*222*222*222*22*2********--#***2****2****2*8;;114+$55o111111X11111**2;;;;*24XXX4+$8$+;114**;*2*2;*22---*---*-*;;6;2;2;6*=",
"4#1*22*;#;*2*2*X42*2*2*2X2*******8-#***22**22***2**2###=5$+55=#4##4#####X*2;;*;;*;####=8***5####22*22**X*2;-------****;;;;;;**;=",
"4#1*2*211*22*22X1*22*22*X2********8-#***222***2*>28;4;XX1;;;111111111;11444XXXX4111X1;X1X1X111;42*222*242*;**$$$$2*2**;;X*;;;;X=",
"4#1*;2*2;*2*2*2**2*22*22*2*********8-<-**2*2**2****2X11;2;*-;;1;X11;;;2;;1-5$$552XXX111111111114*2*;**242*;-$$5$2*2**2;;;*;;2###",
"4#12*;2**2*22*222*2*2*2*2***.**.****5=*22*2*2*2***8;X;;;11----*----*****;1$5$5$$-112;;;;;2;;2;;X2*;;;*242*;8$$$222*$8*;*X*;;;###",
"4#1*22222*2*;**2*22*22**2***********5=**22*2*2****2;X2;11;*****2******2*X1$$$$$$*;*---$-*---*--2**2;;*242*1*$52*2*$$-*;*X*;;6=##",
"4#1*2;*2*22X1*;*2*;;X*;*22*****2****5=*2*2********8;1;;1;X**2=#===##=X*211$$8$$$-2$$--8----**5-;**;;**24*;1-$222*$858*;*1*;;;=##",
"4#1*;2;*2;*XX**2*2*X;**2*2*******.**8=*22*2*****.*8;X;2X11-*2###4####1*21;$-$$$8-*-2;;;2;;2;;;$;;2;;1*242*182*2*$$5$8*;*X2;;;###",
"1=4*;222*2*2*2*2***************.****8=82**2***.***-;1;;;X1**-*2****22;*2;X$$$$8$-2-2;;111111;1$;**1;*2;4*;;-*2*$85$2$*;21*;2;=##",
"2;;;22*22*2*22*2***2****2****.**2***8=*22**2-2****8;X;;;24**1X4414;8*-*-;X+555+5;*-*;XXXXXX;;1-;;*;;;**42*1-2*85$$228*;21*;;;=##",
"*241XXXXX44444X4XXXXXXXXXX111111111;;#1;11;1111111;411**4X#4;X111X14444414=44444X2-21XX1X1XX;X-;*2;;**242;1**$$$52*2$*;*X*;;;=4#",
"122222*2*22****2**********2***-**8*****888-88888888$#X;;4==#X141XXX1X1XXX;=1X1XX1*-221XXX1XX21-;;*;;*2*4221-$$5$222*8*;21*;;2=##",
"*22;;*;;;*2*221;;;*;*;2222*2*2*2*2*2*.*2********----814#1-5*=12;111;11;;2;=X1X1X1282;XX1X;11;X$;**;;;*24*;;-5$$22*2$8*221*;;;=##",
"*;;1;;;;;;;*2X**2*22*2#*2*2*2*2*2*2*222*2*********8-*--;5$$$$=;;1;X1;124X;=;1111X*-*;XXX1X11;1$;**;;**;42;;-$$22*25$8*;*1*;;2=##",
"2;;2;;2;;;;*212****2*8#2*22*2222*22*2***22********8-***8$$$$$412;#4;1;#X2;=1111X12-2;1X1;11;;;-;;*;;***4**1-52*2*$$58*2;1*;;;=##",
"*;;;;2;;22;;;1*22*2*2-=22*22*2*22*2*222***********8-*18$5$5$8-42#4;;;=X;2;=1;1111$$*;;;11X11;X-;**;*;*24221-*22*$$$$8*;;1*;;2=##",
"22;;2;6;;;;2;X**2222;*=*22*2222*22*2*11****.**.2.*-8*1-$*$$8*542;2X1;121;;#111;1XX*8*;1X1X1;XX-;***;*2*42;1-*2*85$5282;;1*;;;=##",
";;;2;;;;2;6;;X*2*2**28=2*22*2*222222*2***>2*******--*;888;2;$5X;;1X1111X1;441;X1*5**$*;1111X;X$1**;;;2*42;;-2--8---2$*;;1*;;2=##",
"*;;;6;;;6;;;;X*22*22*-=22*2222*2*2*22*2*2**2******8-**155$5854;211X;44XX;;1#11;*5$8;-$*21;1;;X-;**;;*224*;1-*33333328*;21*;;;=##",
"*2;;;;2;;;;2;X**2*2*28=*22*2*22*222222*222*2******8-***;5$$$*#;111X141*1X1;1#1-5$$$$;8$*;;;6;X-1;*;;;*242;1-$33333328*;*X*;2;=##",
"*;;2;2;;2;2;;X*****2*8=22;*2*2*2*2*2*22**22*2*****8-*****;;*8*#;11114X--;X;;;*$$$$$8-28$*X1;1*-;**;;;*24*;1-533333358*;;1*;;6=##",
"*;;;6;;2;;;6;;**-***--=;*2;;*22*22*22*2*2***2*2*.2**>********8*#11X;4X8**;X1;4*$$$8-8$2-55555$-1***;*2;4*;1-########8*;2X*;;;=##",
"*2;;;;;;6;;;;X*--===2*#;22*;*2*22*2*22222**22**********.******8*#;X141-;**1X2;X*88$8$8$2******;4**;*;**4**1-777777775*;;1*;;;###",
"2;;2;2;;;;2;;;#1;;;;2;;2;*2*222*22*2*2*222******2****>****.****82#114;-****111;#$$$$$$$5#=======2*;;;*242;1-7$8o33+7822;1*;;;=#4",
"****************8******-*----*-------*-8---8$858***>**2*****8*828;#;41-22***X4*##*$885544#44#4##**;;;*24*;1-73353o378*;*X*;2;=##",
";;;1;;;2;;;2;1;;;2;2;;;;;;;;;;;*22222;1*2*2*222*52*****;********8$;44X-*;2**1#;1*4;$$5;X144##44#2*;2;2;4;;1$7&&+87&7$2;;1*;;;=#4",
"*;;;2;2;6;;;2;2;;;;;;2;;;;;;;;;*2**2**2*;222****28***************8$;#X-2;*2*4#;;;;X*5;1XX144#4##2*;;;**4*;1-7&&*87&752;;1*;;2=##",
"*2;;;6;;;;2;6;;2;2;;;;;;***;*;**;2*22*22*22******88**2***>**>8****25;1-*;2**X#2;;;;44X1111;44###*2*;22;4*;1-73o9:3o7$*2*1*;;;=##",
"*;;2;;;;2;;;;;2;*;6;;2;2*;*;***2*22*22*22*22**22**852**********>*8*8$;-*;*2*1#*;*X12*X11;X11444#>*2;;*24*;1-7:o:9:97$2;21*;2;=##",
"*2;;;2;2;6;2;2;;;;;;2;;;;;**222*2;*2*2*2*2*22***2**88*8282*****2;;**-82**22-X#;*2111;*11XX1;1X##;*;2;*;42*1-7ooooo:78*;*X*;;6=##",
"*;;;2;;;;;;;6;;6;6;;2*;6;;*2*2*2*22*;*222*2*22*2****88*2**82***288***8-;2*28X#;;*111;;*X1X11114#;**;;*;4*;X-79ooo9+7$2;;1*;;;=##",
"*;;2;6;6;;2;;;;;;;2;;;;***22*22;*;;**2*2*22**2*****>*88***>**82*******--;;*-;;*;*;2;*;*111;11;1#**;;;*242;X-7::oo9o7-*;;1;;;;###",
"*2;;;;;;2;;2;2;**;*;6;**;;*;2*2*;**22*;*2*2***2*******852****>***8*****8-*2X4;2X5$-----==1;111;#2222;*24*;1-77&7&&77-*;;;*;2;=4#",
"8*******;**2***;****2*2******2****2*;**2;*********>**8*88*******8****8**8-*-8------**-*$*$**1114;;;X1;14;11-733o5o57$*2;X;XX;=##",
"$****2*2*;*****222**2*2**2*******2**222*2222*********82*858***8*882**8*****2*****8-2*****-*81;144144444#*;;-77777777$*;;#X444=##",
"-2*2*2*;***;*;;**2;*;*;*2*2*22*2*;;;;**;;*X*2****>*******28****2*****.****2*****22**2*2888*81114;;X112;4*;1---$-*--*$*;;411X;=##",
"8$8$-$-------$------------88$$88$------$--51*2***2********85>**>22**>*****.2*222*2*2*2*22*;*1;X41;X11;1#*;;***----*-8*1;X;X;;###",
"8***22*2*2***2******2*2**********2**;*2*2**-1******8282****882*28*>****2*****-***2*2;2;;*553;X1X1;;11;1#*;X----$8$--8*;;411;;=##",
"-8******2******2********************2****2**81**2*>*2**82**288*2*************22*222*;2;*2$83;1141*X1;1X#**15+$=44<-88*;;421;1=#4",
"*-*88-8-**-----**---*-8-8-8-8-------***---***81*******>**2***882******>****188#=888-*8;**$-+;;X4;*11X1X#2;1;;;---82*2*;2X;12X=##",
"#########4#;1XXX1X=======================;8**281*2*******2****8*********.2*185#=55885**;*$8511;4;*1XX;X4*;1$$-$85$-*82;;X;;X1=4#",
";11111111;45--8;521111111111111111111111##*-22*-122*82**82******8**.282****222*222*;*1;;*--3;1X4;*XXX114*;1$--$$888*$*;;X;X1;=#4",
";111;11;1;458-5;$2;111X11;11;11;111;1;111##28*2*81*22*8222*.2**28****2*******2*2*2*;2*;;*8$5;;14;;X1X;24*;1$--:777$-8*2;X1X11=##",
"2X;11;11124$--8;5211;11;11;11;111;11111111##28*2*81***2*22***822*582*828282****2*2222;;;-8--;1;412XX1;;4*;;$--o7775*5*;;4;XX2###",
";11111111;45-882$*#######4###4##4#####41X114#**;**812**8*22******28****2**2222**22*>;;***2;*;XX41;X1;;;#*;1$--o7775-$*;;41X1;14#",
";11X111;1;4$28$;$*#################4###4;1114#2*****1**2*2*2*8**8**88888888888**8******2;**-;11412X112X#*;1$--o7775-5*;;411;X21=",
"21111;XX124$8-$;$*11111111111X11;111;14#41111##;82**8;**2*8882*****>2*2*2******8****2;;*;;;*14141*1;X1X#**1$--##4=$-5*2;4;;X1X;=",
";11;X;X;X;4$-882$*1;1;1;1;111;1111111;14#4;1114#*-2**8;2*28***82>***2*****2**2***22*12;;**;*1X4#;*X1X;X#22;---1;;#5-5*1;X;1;XX;#",
"111;X1;X124$--$;$*144444444444444444411;4#X11114#2*22*8;2*8282*2****8282*2****>*>***;;;;;1**;XXX;;;XXXX4*21$881;;4$-$*12X;;XXX;=",
";XX1;XX;X;4$8*8;5*111X-85X;11;1;X;1;#11114#11;1X4#*82**8;***8**22**822*22*28222*2*2*;*;;;;;*11X4;;XXX124*;X$55*--#555*1*X;XXXX*=",
"2X11X;X;X24$-882$*1111$-$X1X111111111#;11;4#411114#*82**8;*****2**********>22**2*2;;;;2;;*;*1XX4;;XXX;;4**;X111X114;X;;;X1X4X1*=",
";X1;X;X1;;4$--$;$*1;1X$8$1XX11X1111;X1#11114#X;1214#*8***8;*2**8282.282822***2*22***;*;;;2;-2;;4;1X112;4;2;;;;2;;2;;;;*1X;XX11*=",
";111;X;XX;4$8-5;$*1111--8X1;11;1;1;X111#11;14#X11;1448-***8;**>**2**22*22**2***28*8****8*;;-1X1411X111;X=1;***;;;;;;;;41X2X1;1*=",
";X11X11;124$--$;8*;11X8$8111111;X1X1;1;1#11114#112114488***8;******8****82**2*2***222*2*;;2*1X14121;1;X1X1;;11XXXX1;11XX111111;=",
"211X;X;X;;4$8-5;5211;1$-8X11;1;X1;1;X11;1#;11;4#1;11144**2**8;***828****2**82**2****;**-*;;*1X141*X1;XX;;****;;;;**2*;;;X11;XX;=",
";X1;X1X;X;4$--$;$*XX11--$#444444##XXX;X;X;#1;X14#1;1X441**2**8;**>*8*8**822***22**82**2*2;;*1X1X;;1;X1;X11X1XXX11111XXXX*;*X1X2#",
";;X1;X;X;;4$8-5;$*XX11$-$X1;1111;X=X41X;XX1#X1;14#X111141**2228;22****>2*22*22*282*22*2*2***1114;*1X;#=;2X1XXXX1;1;XXXX;X#XXXX*=",
";X11;X1XX24$--$;5*1;11$-$11111;XX1X=1;X1;X;X4111;X#X1111418*2**8**********2*****>******2***-;;2X;*XX14X;;X1X1X;X11XXXX;;141X1X*=",
";1;X1;X;X;4$*8$;$*XXXX--$X111;X;1;1X=1;X;X111#;1;;##11;11418*2****88888888***8888*88888**8-$11X4;;XXX12X1XXXX111;XXXX111*;1XX1*=",
"###########X4414X11;14444;2;;24#X1;X1#X1X;X;X;#12;14#X1111412*22*222*2*222;222**2**2222;*22$141412XX111;XXX11;11XXXX1111XX1X;1*=",
";;;;;*;;*;;2;;;;2*22*2**2****-*##XX1;X#;X;X;XX1#;;114#;1111418*88888888888****888888*8***8-82;;XX;1;2;2X1;X;;;2X1112;2;;111;;**=",
";1;;1X1;X;X1112;2;;;;;;;2;;;****##X111X#11;X1;X;#;X;14#1;11141*2*5555*********2***2*****88$$#114#X;11XXXXX121;XXX1111;XXXX;11;1=",
"*1112;;X11XX111;;;;;*;*;;;*;*22*2##11;XX#1X;X;XX1#11114#X1111111=8*$14114442*54#8**;4441X**244X44*2;***2**2*;;;;2;2;6;;;;;;2;;-=",
"2;2;*2;6;2;*;;*********2*****2*2**##XX1;X#1;X1;X;X#X;114#1;1;X;1#553;1111115551#+552111115851111X$*----------**--**--***-*****$=",
"*444#4#4##4##44444444X4444441*2*2*2##XX11X#1;X;X1;1#X4;;4#X11141#353;;1X41X5851#+55;11;11$$51111X$------------*-*-*-*-*-*-***-$=",
"*;;;;;;;11111;;;*;2;;;;;2;;2;X*2*2**##11;1X#X;X;X;X;#;1114#####4=353#444#41855#=+55=####;$85####45$*-*-------**--**8*******$*-8=",
"*1;2X2;;1;12;2;;;;;;;;;2;;2*;;1*2*2*2#4X11;X#XXX1X;X1#;11;11;X11#353211111X55+X#+5521111;58511X;4$---------------8*-******8-*-8#",
"*2X;;2;;6;;2X2;2;2;;2;;;;;;*;;*X*2*2*24#11X1X#1;1;X1;X#;X11111;1#353*1;1;1X$551#+55;;1;11$$5;1XX458-8-8$558-8-8$$$*****855*-*88=",
"*;;2;;6;;;;6;;6;;*;*;*;2;2*;**2;;**22*24#1;1;X#1X;X;X11#1;X;1XXX#3+3;11111X5$51#+55;11XX18-8XXXX45----88X8---*88*8****88X--*8-8=",
"*2;;2;;;2;;2;;;;;;**2*;;6*;*;2**;;**2***##X1X1X#;X1X;1;X41;X1X41#353;;111;X-$5;43$5;;111;$$8XX114$88888*;$-*228#;8*2-8-2;28-288=",
"*;;;;6;;;2;;;;;;*;;*2*;;*2;**22*2;;*;;2*2##X;11X#1;X;XX;XXXXXX11#353;1X1XX4X1XXXXXXXXXXX1885141445---8-5$88-*8885-**8-28$8***8$=",
"*;;2;;2;2;6;2;6;*;;*;2;;***;;;*;**;;**2***4#11;1;4X;X;X;X;1;X111#3+3;11111111111111111112$83X1X14$88----8--8--*--8*8-**8*-82*88=",
"*2;;2;;;;;;;;;;;;;6;;;6;*;****;*2*2;;**22*244X1;XX4X1;;X;;X1;1*;#353;;1;1;11;1;1;1;1;1;;;$85111145--8-8----8558-2-*855**8--8*88=",
"*;;;;6;2;6;;2;2;2;;;;;;*2;;;2*;*22**1;**2***4#1X1;X4;XX;XX;X;;X1#35o;11111;X11111111111;;$-3X1X14$8-----8-8228--8-882-8282****8=",
"*;;2;;;;;*;*;6;;;6;;2;;**;**2*2*2*;*;1**222**44X11;X4;X;X;X;XX114353;1;1;XX1;X;X1;X1;X;;;$8+X1X445-88-8--88*;----8-2*28******88=",
"8*****--------*******-***;*;*2*;*2**;*X2**2**2##1;X1141X1X;X1XX4#353;;X1X;1;X11;X1X11XX1;-$+XXX1458----8--8$888---2$88****.***-=",
"*;2;;;;2;;;*;;;;;2;;;;;;*;**2*2*2*;*2*21**2*2824#11;XX==#####=4#=353=#=#====###=########X$-5====45--8---.--*8--*8-******.-****8<",
"*;;;;;;;2;;*;*;2;;;2;2*;;;==#2*;***;*2*21**22*8*4#1;X;X##4444#44=353=44##4#4######444444;$$5*8$8;$8--88---8-22828-*2**.**--8**8=",
"*2;;2;6;;6;*;;;;2;2;;;;;2=###42*222*;*2*212**2*-2##X111X1X;1XX11#553;111;11111111111;11;;--$888$25--8---8--88**8*8*88-**-8*-**8<",
"*;;;;;;;;;;;;2;6;;;6;6;*;4####42*2*2*2*2*21***2*-2##X;XX11111X;1#3$+;;1;111111;1;1;11111;$-$.$88258---8-----28*---*8--***-****8=",
"*;;2;2;2;2;2;;;;;2;;;;;;6;#####X2*;*2*;*2**1*-*22-;##XXX;11;1X11#55521111;1;1XXXX11;X;1;;$88-88$;$--828-*88-*82*8-8-2*********8=",
"*2;;6;;;6;;;6;2;6;;2;2;;;;*#####X2*2*2*2*22*1*****8****----*-*-****81****************2**2**24##4;**********2222222222*2222>222;4",
"*;;;;;2;;;2;;;;;*;;;6;;2;;*2#####X2*22*22*;22;*82*2----------8-*88---*8*********-**2******-811X14*22*222>2222;2*;22*;;;2;;;;;2;1",
"*;;2;;;2;;;2;2;6;;2;;;2;6;*22#####X2*22*;*2***;***2*2***********2*********2;;*2***;2;222222-1*5$48*22*2*2**2;*;2;;*;2;;;;;2;;;*1",
"*2;;;;6;;2;;6;;;;;;2*;;*;*2*2;#####X2*2**2*;*2*;*88-8-*888-8-8-88-888*88--**8**--**********84*$548*******2**2*2**2*22*2***2**224",
"*;;;;;;;2;6;;;;2*;6;;*;;*;*2*2*4#4##X2222*;*2***2*****82*8-*-*-***-*******************2**2**X*$$4-;;*;;;;;;;;;;;;;;;;;;;;;;;;;21",
"*;;2;;;6;;;;;2;;;;*;*;;;;;;;*22;44#4#X2*2*;*2**2;1X1X1X1X111111X111X1X1X1111X1X1111XXX11X1X21*8848;;;;;;;;;2;2;;2;;;;2;;2;;2;;;X",
"***2*2**************;;6;;***2;;*24##4#X2*2*****2***2*****88********2****2**2*22222*22*2222;*;*$84*;;2;2;22;;;;1;;;;2;;;;;;;;;;;1",
"X;;;;;;;;;;;;;;;;;***;;;2*;2;;*2*24444#422**2*2**********8-**************22**********2****2*;*554*;22;;2;;;;;;;;2;2;6;;2;2;;2;21",
"X1X1XXXXXXXXXXX;X;42**;;;;***;;*22*###4#1*********88*****8-******.***.***2*2*******22**222**;$+348;;;*;;;;;2;2;2;;;;;;X;6;;2;;;1",
"1X1XXXXXXXXXXX11;XX42**;;;;2**222*2O###4#2****2***88**.**8-**.***-******************2*2*222*14XX48;22*;;;;2;;;6;X2;6;;;;;;;;6;2X",
"XXXXXXXX1XXX1X1XXXXX42**;**;2;**22*2;###22*2***-***8*****8-*8**888********.2****.*****2*2*2*141X48;;*2;;2;;6;;;;;;;;;;;;;2;;;;;1",
"1X11X1X1XX1XX11XXXXXX4****;2;;*;*22**2>*2*2*******8-*2***82**8----88*8*8*****88*****>**2**2*141X4-;;;;*****2;;;;;*;2;2;6;;2;2;2X",
"X1XXXXXX1XXXXX1XXXXXXX42*2*2*2**2*222*2**8***.-88888****8-88--8-8--8-88888***88*****2*2*2*22;41X48*8-*--*-*********************1",
"XX1X1X14XX41X111X1X1XXX42*2*222*22*22222**8*8****.-888**.---8----.--*8-*8-2**8***>2*2**2*22*;4X1482;;*2;;;;;;2;;;;;;;;;;;;;;;;*X",
"1XXXXXXX1X1XXX1XXXXX1XXX4**2*222*22*2*2**2*8***;1128*88*8-8-*88*8-888-88-8***88*****2**2**;*;4XX4-;2;*;;;;;;;;2;26;2;6;2;2;6;;;1",
"XX1X1X1XXXX1X111X1XXX1X1X4**2*2*2;*2*222*2***;;*5581*8*;888888888----8--88;8*888*****2***211;44448;;;;*;;2;;X;6;;;;X;;;;2;;;;;;1",
"XXXXXXX141XXXX1XXX1XXXXX114**2*;*;*22*2*****2;55$$58;*8*55$555$555$58$85$$88885$888888888-8-;41148;2;;**;;;*;;;;;;;;X2;2;;6;;2;;",
"=========<====*2*2222*<#####*****;**22*22*2*1*5-18551***-------------*8-8****8-2*2**2228*-*814114$;;;*2;;2;1@*@@6@6**;;;6;;;;6;X",
"1X11X14141111158-8-885*11X14#*22**22*22*22**1588$-5+4****8-8-8-8-8*8828*2****8-8****2**8*553-41148*;*;;;;;64;X6%;26;*;2;;;;2;;;1",
"XXXX441X4444XX+8--88-5$XX1114#8*22*;**22***24$$*5*552****8------*888-*****.*28-8*******88553;1X148;2*;*;2;;;01111104>;6;;2;;2;2X",
"1X1X1XX1X1X1X1+-8---8581XXX11#4--2**22*2*22*2*5--555****82**8-.888*-88*88*-28---*>***828858+1X1X482*;**;;;2@4@-@@0@,*;;;2;6;;;;1",
"XXXXX1XXXXXXXX+8--8--5*1X1111144-*22*2*;*222*1-5$$5*2*****8***----28***82*8=$5=<555588*888$+11X14-;;;2;;6;;00@@@,@@@*;;2;;;;*X2X",
"#############=28---8-8=44=411;144-*22*2*2*22**1X111*****.***.8-8*88-8*****8=85==5$$55*88$$831XXX4$2*;***;;;@46110X%*2;@;;;2;;2;X",
"##############4#####444111#11111#4**22*22*2*******2*******2***8*88********82******2**82885-+X1X14-22*-2***************2***2*;;*X",
"########=#=##=5.8-8858*1;11#X1;X1#4-*22*22*2***2**************8*8-8***>**>*8****2***2**8$$$5;XXX48;**2*2*****2*****2*2*22*22*;*X",
"111111111111115--88-5811;12X#X1X11#48*2*2**22***********>**82*****8**********2******2**28**-11X148;**=---****************-#*2;*X",
"XXXXXX41#4141458--8-58;1;;111#11;11#18*2*2****2*******>*********>**********>*********2*8-8-81XX14$;**#5$8$88-------------+#*2;*X",
"XXXXX111114111588---5811;11;11#X1X11#X8-**222******.2******>*******>**>*******.*>*.***22*2*-11X148***=58--8-8-8-2-2*>**283#2*;*X",
"1X1X1XXX41111158--8-5$11;;11111#4;1;1#1$88$8$8$85855555555585555555585555858558858885858$8**1XX4482**=58-------8-8**8*8**+#2*;*X",
"XXXX4444441XXX5-8---58;1;11X1;X;#4111;41;11;================#=========================;;11=#X1X#4-;2*#5$-8-8-**8-2*******5#22;*X",
"1X1X114444441X58--8-581X12;2;*X1X<4XX1113$$3$1111111111111;111111;111111111111111114118$8$81111=48;**=58----828-88*******5#*2;*1",
"X4XX444444444158---8551111XXXXXXX=##111;38$35111;1;1111;1111111111;1;11;11X1XXXXXX441X88$881X4<#48828#5$88--8*8---**28**85#;**;#",
"####=#=###==#<5-8---5; 1X;X11XX4=####11X+$$++X;X11111;11;1;11111;1XXX111111111XX#441X1$588;#####4****#55555588555558855553#1*;;="
};
