/* XPM */
static char *_a2f84bdd7564911f00c2f20f3c527722qcRcBjcT3zDreTz[] = {
/* columns rows colors chars-per-pixel */
"128 128 64 1 ",
"  c #0C0A0C",
". c #444E34",
"X c #4C3A24",
"o c #6C6E6C",
"O c #2C2E2C",
"+ c #744E2C",
"@ c #6C4624",
"# c #343E24",
"$ c #64523C",
"% c #4C4A4C",
"& c #1C1A1C",
"* c #5C4224",
"= c #7C7E7C",
"- c #745E4C",
"; c #3C462C",
": c #2C220C",
"> c #54563C",
", c #544234",
"< c #3C2A1C",
"1 c #5C6244",
"2 c #543E2C",
"3 c #5C462C",
"4 c #242224",
"5 c #8C8A8C",
"6 c #846A4C",
"7 c #444244",
"8 c #141214",
"9 c #4C4E4C",
"0 c #4C3A2C",
"q c #747674",
"w c #343634",
"e c #6C5644",
"r c #844204",
"t c #3C3A3C",
"y c #5C5A5C",
"u c #848284",
"i c #6C6A6C",
"p c #342214",
"a c #545654",
"s c #443224",
"d c #646264",
"f c #5C4A34",
"g c #242624",
"h c #444644",
"j c black",
"k c black",
"l c black",
"z c black",
"x c black",
"c c black",
"v c black",
"b c black",
"n c black",
"m c black",
"M c black",
"N c black",
"B c black",
"V c black",
"C c black",
"Z c black",
"A c black",
"S c black",
"D c black",
"F c black",
/* pixels */
"O4gggO%wtwg4O%h77777777t77wtwwtwwtwtwtwwtO&4g4&gtwttwtwwtwOOOg& tggggtwOgOOgtt77777h%h7h%hh7t7777777777wtO4ggg&gttttwtwttO4gOg&8",
"twOOwO%777tOO7tttwwtwwtth7t77777777h%h%tOgOgOwOOttwthh%%h%7htt4 ttOOOt7%7t9%7hydddyddydddddoiydddddddydtOgOgOwOOtth7hh%h%7wttt4 ",
"wwttOO9799wOOthwOwOOwOww7th999tttttthhttOgggOOtOOOwwh7%h%777wOO8tttOttttOttOOth9999999h999haahh%hhhhhh9hOgggOtttwttthhhtthwttOg8",
"tt7tOOa%99ttt%tOOOggOgOO7tth77t#ttthh97htttttwtOttttw77777;ttOO4th7w%%99a%ht9yaayaayyyyyyyydyyyyyyyyyadhtttttwwwtwttttttttOtwOw4",
"tt77wO%%9%7yt%wOOOOOOOOOhh7twtttttttt777twwwwttwOtOttwhhh7tttwOwwttw77777777777h9htth9aaayay999aaa99yd9h7tttttttt7h7;%7hhtOwttOO",
"wgOOOO%h9%7y9htOOOwOwOwOt%7tttttttttwttttttttt7%777wttthhh7ttwOgtwwgwOOOOOOwOOOt%7wwtha%%9h9a9%9a9999da7%hhh%h%7hhh%%h9%hhwwttOg",
"ttttOO%%9%hdhhtOwOO<OOOw7h7hhhhhhhhhhhh;tth77777%h%hwwthhhh7htw&t7tOh7hhttttt2w7a9t7h9999a%%9y%99a99yy977h%%%h7777h7h%hh%7w77tw&",
"t97tOt%%997a9htOOOOOOwOO7%%7hh%h9hhh99%%hh7777777h9htwh7h7hhhtO4t,,s%%%%>,777f7%99aa%h9yyaayadddy9y9yy9hh%att9a99ya9a99%9%wh7tO4",
"t7ttwt9%y97y%%wOOwOwOO<O7%9999a99a9a99a99%hh7;7h7hhtth7tth%97tOgt,2Xh%,,%,h7h$%%a%tttt7h7h7h%hh79y99ad9%haywgydayyaya97hha7hhtOg",
"th;7tw%%a97yhhtOOO<OOOOO799a99y99999999999%%h777hh%t77ttth79httgt,0s2,27,,h77,h%9%7hh9%%%h%h%htw7y9yyd9%h9yhO9dqy9%99%ttth7%httg",
"w77htO9h9ahyhhtOOOOOwOwO7%9%9999999a999a99%9%h777h%thwwth7%7hhwgt22Ot0w9%377h,h7%9h%h%%hh%hh%h%tha999y977%ya7addy%99a%%9y97%%hwg",
"wh77ww%%y%%y%%wOwOwOO<OO7%99%99a9a%99a%9%%%%%%h7h7httwthtthh%7tgt,0O22w%h,hwh,%h9h%7tt7th7tttt7tta999yyh7hy%t9daa9%%9%9999thh7tg",
"t77h7O%aat%ah%tOOOOwOOOO7%%7a9a%99a%a%a99a999%h77hhtwwhtwOwhh7wgt20tww99%,ttt,9%%%htth7h77htt#hh79%9ydyhh%ahO9y%9%%9%%%9%%wh%tw4",
"w7hhhOtttO79%htOOw44O44O7%%79y%9y%a%9a%a%9999a%h779tOttwttO7htt4t02w97%%7tttt,%h%97th7wth7777th77ayyyiy9h9y7way%999%9%%%hhthhtwg",
"wth7ttOwtt9yh%wOOOwO4Ogw7%7%99y9y9%a%%99a%a999%%hhhhthhhh7hh9twgt20Oy9t%7ttth,>%9%ht7#tttt#7hthhtayaadd9%9y7Oyy%9%9%%9%9%ht%httg",
"t7h%tth7h%ay%9tOgwO<O4gO77w%99999a%a%a%a%9a%a%%9%9999h%%hh%%htwOt20O9athhhhth,9%9%twOtwOggOOth%7tayaadyhh9yhO9y%%%%9h9%h%hth%twg",
"wth7wt%h%999hhtgg4gO4O4O7%9a99aa%a%%a%a%a%9a%%%%%%%%%h%%h%h%httgt,tw%h7%h7tth,%999ttOwwtOwOgt7%h7ayaydy9%9y7O9ahhhhh%hh%h%t7h7wO",
"wth#;ttttt99%httOwOOOOOt7%%99a%%a%a%9a%%9%%%%%%h9%9%%hhh%hh7htOgt0wO%7th%tt;7,%h9%httwwtttwOth%7hayaaiy%h%yhO997%7h77hhh77th7tOg",
"twt<pww55w9%h%ttttttttt77%9999a%%%%%%%9a7%%77777777h7h7h77hwtOO4thtO%t%97tt7h,7%9%7tttttwtwwtth7tay9ada9haatOyy%hh%9%%9%hhwwwtOO",
"wgOO:ttq=t9977wwt77ttttt7%99a%%%%%9%%%%7%7%%%hhhhhhhh7h7h77wOOO4t7tOtta9hthh7,7h9%ttttttOOtwth97t9%99dah7h9tO9yhyyhhh%hh%7wtOOO4",
"twtttOtgwh9977t%%%999yy77%9%%%%%%%%%%%%%7%777h%%h%h%hh%hh7ttgOtwth7wtht%7thtt,h79%twttwttOwwt99htaa%ay9%7%ytg9y799%h%h%hh7OOOOtw",
"twwttgwwwy%97hth%%%%999%7ha%%%%%9%%7%%%%777777777h77h777ttwOOOt%thhth7t97h77hf%%9httthhhh7tt7h%7tyy%9y9h7%atg9yh%h7h%hh77twOtOt9",
"ttOO7tO7a%h%h%ttOhh9%t%%th9%%%%%%%h%%hh%77htwh7777h777h7hhttOtwOthh7777hhhhh7e9h%%79.hh97h%%h%7wt99%9y%htha7t99777777777htOOOOtO",
"thtt7ttth%%h7httw%%%97%h7%%%9%9%h%hh7h77th7O&h7h7wttth77hwg4444&th7thh999999%ey%%htwOwwOOOOtwttt9%h%h97t#79%t%977httth7777wgOOO4",
"t9hOwh7ttt%9%%t9%%999ya%7%aa9999999a9999%%9wg%9%999h9h9%9htOOwgOt77whhh7h%%h%$%%99ah7777%,%%%99999%%9ya%79y9tay9%%9h9h9%9%h%7ttt",
"t%httthhh99y%9th99a9yay%79yayyyyyy99999a999tg9a999%%99999%%h%htOt7hwth77h7tt7,h799y%77h7fehhh9y9%%hh%ya9%adtOyd9y9999a99%9%h%7tO",
"th97wwhth99y%hth9999ya9hhhay9a97aayayyyaya9tgaay999a9a9%%999%%twt77th7h%hhhh%%%%99a%777hhh7h%997hh%hhay99ydhOydy9%9a999%%%9%h7tt",
"hw%%hhwwt79a9ath9999ya9%7%y9yy99yaayaaaaya9tg9y99999999a%999%hththtwtth%%9999a9ayyaaaaayaya9yyyyay999yy9%ad7Oyd9yy9999a9%9a9%ht7",
"7tw99%wh99yya%h%9a77yay%79ayaayayaaayay%999tg%999a9yy99999a99%77t7twth9%99ayaayaaayyyyyyyyyddddyyay9%ya9%ydhOyd9ydayy999a9999%th",
"h%w%y97%yyyy9%t%9999yay%7aaayayaayay%ya99y97g9y9ya9y%yyyy9999%7ht9hth%99a9%9999%%77h9%hh9%99ayddyyy9hyy9%ad7Oyy99999999999%%%7t7",
"%%thaa%a9yy99at%ayyyyyah79yyaaa9yayaaayy9997g9yy%yayayaaa9999%hhthhth9997ttttttwOgOggOOwgOOww9dddya%%yaa%9dhOaaa%99999a9%%7ttwww",
"99hwtwhy%t9y99tayayyyyyh7ayayay%aaaya%9y%9a7g99y9yaayaayayyy9%7%t9hhh%9%ttttttttOOtwtwOOOOttO7ydd99hhya9hay7Oyy99a9yyy%9%tttwOtt",
"9%7wwth97O9ya%tddyyyydd97ydyay%%y%ya99ya9y%7O99y%yaaayaaaaay9%%7t9hh%%%%twtttth7w7tw7tOOOwOtg%aydh9h9ayh%%yhO9yadiyaay%977tOOOww",
"hhttwttttwh9y%tdayyyd9a9tadyyya9yyayyyyyyay%Oayayaayaaayaya%97twt.h7%999ttwtttwtttttttttOOttO%ydd99yyya99ydhtydayyayaa%%%7tOOOtO",
"99twtwtttO%%a%ty9ayydada7adyyay9ydyyyyyaayy7O%ya%yaayayay%yy9%7tt9%7hayattwwhhttwttwtwwOOOOtt%yyy999yyy9%ad7Oydaayayaa777ttttwtO",
"9ytwwtwttt7ha9tydddddooahadyya9ayayaayy9yay%O9yyyayyyayaayaa997hta9h9y9yttwwtttwwwhwtwttOOt7whyy199%9yy9%ad9hydyyyyayy7%7tthOtOO",
"aa7twhttt#t%y%tyddioooq97ydyay>9aaayya9yyaa7O9yyyyyyyyaayaayy9%7taahha9attwOwwwtwOthtwtttt7%w%ayy999yoy%9ydd9yyayyaya97hhtwOwOOO",
"ya7wtttttttha9tdiydddii%t%yyyyayyayaayaayyy%Oyyyyyyyyaayayaaa9%7ta9%%yayhhhh%httwwwth77tt79atayyd99idoy99adyhyyayyay977hhttwtOOO",
"99ttttwtttthy9hddddoood9t9odyyaayayydyyyaay%Oyyayyyyyyyyaayay%%7taa%9aya77h99%7tttOO%ahh77ddt%dyd9aydid%9aohOdoadyya9%h%7tttgOgg",
"%a7wttwtttwhy9t9aayyydyhhyoddyyydyyyddyyyyy%Oyyyyyyyyyya%%yay%%hta9%9yaa7h7tttttthttX,tttt22t9ddda%%aod99yd7Odoyyyy99h%%hhttggOO",
"%atwwtw7#tttaa7hh9h.hhhh7addddyay99addyyaayhOayyyyyyyaay9ya%y%h7ta9%9aya777thhthtttt,*tttt3Xh9dyda99aod9aadtOddyooy99%7%9ttwggOw",
"9y7tttwttttth%9ayyyyyyya1yyyy1ad9hhyydyyayy9Oyyyyyyyaaaa9yy%%h%7ty9%9ya97h7htwttwttt97hthtt7t9dddiyydod99ydtgddadoy99hth%htOggOO",
"y9htttwttt;twh%999hyodiddddyddyya9aaayyyyyy9Oyyyy1yadaayaay%%%htta9%9y9y9%%%99999999999%9999%addya9aydy9ayotOiya9aa9%7hh7wwwgOtt",
"yahttt#tttttt,9yiahydddddddd1yyyyyyyayd1yyy9Oayyyyyyyyaayaayaah7tyaa%%ayaaydddyodddoooqiddddddyyyh999ayaayohOdyayay97h77ttwOgOtt",
"9y7wtwtthhwtt,99da%yddddddddyyyyyyyyyydyyyy9Oyaayayaaaayayaya%hhtya.%9yyyyddddoidooioqqqqioddddyah9q9aya9ad7Odoayyy9777hhtwt4gOt",
"9ahwtttttwtt7,9adyhyddddd1d1ayyaayayyy19yyahwaa9yaaayayaa9ya97%7tya9%hyayaayydoddyaydddyyay99iya9hhd9y>9aydhOydayyy9hhh77htwwOOO",
"y97tttwtwtwth,%ad9.adddddddayayyyyayyydyyyyhOyyayyyyyayayaaya9httya9.%99yaa999ady.99y999a%9ya9yya9hhyoy9aai9Oydyaya9h7777wtOOOOO",
"wtwwtt7ttwOtt,hhd9hth;hh;hhhhhht9dy1yad1yyy9Oayyyyyyyydaayyyy9%htttwgOtOOOtwOttha9%h%yyye-yydy1dddddoqoy9aiawydaaaa997h7htwwOOwO",
"twt7hhhhh7wtt,h%dya%h9999999999thdyydyddydy9Oyyyyyyyy1aaydddya%hthhht77h%7thh,9hydya%hh%a%799addoooioqqdayyi9yoadyaa%hhhh7ttOOOt",
"77t,2hh9ahwth,h%dy9ayddddidyya%hh9ayyyyyayyhOyaayy1yyayaadddya9%thh3th9%%%777fahyaa9ay9yyaay99aayyayyyaa%y9adyodayy9h%h77ttwggtw",
"h9ts,h%>y,7hhfhhdy9yydiddddyaa97thayaydyyyaa7aayayyyyayayydyya%ht,f>%ay9%9h99eyhdy9ydoiooiodyyyydddyydyy9yy9ayadyya9h77h7twwgOtw",
"%9ts3,,,y,twh,7hd9h9addddddyyy977h9ayyyoayay9ayaayayyayaayyaa9%7t,,02,%hh,77t37hoa%9yoqoioidyyyiddd1ddyydaay9yydiyy9>hh7hhttOOOO",
"h9ts3,,2f,tth,h%dy99yddy1dyyyy9ht799aayaaaaa%aayaayyaayaaayay9hht,,22,>>937h7,7%dy99yiiididdyyydy1yyyyyyyyayyyyydyy9hh797wtw4gOO",
"%%wX222,>3tth,7ady99ayyyydyayy9hth%ayyydaaytgayayayayaayayyya9aht,002,9>9ft77,79dyyayddddodyydd1yy9yddd1yydayayyd1y9hh7%twwt4gOO",
"hhtO22029,tth,7%dyayayy1yaa9yy9hwh9yyyddayytgyyaaayayayaaayya99%t22020t,>f77t2h%yyyayyyyydy9ddddddddddddddyayayayda9h7h9httwggwt",
"%%tO,0279ftth,%%dyaa9aaya1%,yy9hth9yyyodayahgayayaaayaayayyyy99ht0020tt,3,7th,79yaayayyyaa.hy1yy9yyddddyyyyyaa9yaa99h%%97httggOt",
"%%ts2t0h%7ttt,h9dya9yyyyy>0>yaahtt9aaaaa99atg9ya99yaaya999yay97tts2twwh77,ttw,hhyyaaayyy1>29aya9h9aaayyaaaay9a9yy999hh9hhhtwtwOt",
"hhts,tt79twth,h%dy9aayyyyaayaa9hhh9999y9999tg9%%9%999999a99997twtsth7%77tthhh,77aaa%aydyyyyayaa9%99tthhh999a99%ay9y%>9a77ttwtOOt",
"%htXthth9tt0@@h9da9%%9999a99999779999999a99hg9%%%%9%9a999999htwOt27027th7th972h7aa%%9aayayayaay9h9ttOOOOOwt9a%h999%9%%h7ttwtOOtw",
"%9tt0777htw0r+9hyahhhh%h%77hh7tw%a999%ya9yahg9y9%%%9%%%9%%9%htttt0htth77hht7h,7ha99aayaaaaaayaa9httth9hhhtwta9h999%%99h7httwtwOO",
"%hwOtwwttt706-%h799%9y9999999%h%%9h99999999tg999%9%%%9%%%9%h77tttwhwwttth7wth,7799yaydyyyyayaya9httthhtwtttt99ha999%%%77hhttwtOO",
"9%hwttttttt,ef37wtttttthhtththttttt77799h%9tg999%9999%%9hh%hh7h7tthwthhh7hth7,hhyyyadddddyyaaay9tthhOthtthtty9%aya9%9%7thtwOOwgg",
"h%httttt;wtX,X,hwthhth9%9hh77hhtttttth9999awg99%9999999%%%h%h77httht9%%99htth,7%ayayddddddddaya7th7twgtthtwta9%aaya99hh77twwOOgO",
"77htttthhtt0f3%7tt,7w%979a9%hhh9hh%hth9y99997%999a9a99%99a%77%7Otthw9hh9a7wth,7w%999ayy1dddyaahw9hwwtw&4gggt99hayaaah777h7tOOOOO",
";..tthth7htthf9ttthtttttayyaa7999999%7aa999yh%%a%9%h%h9%%%h77htOtthth9%%%7ht7,tt%999yaayy1yyy9wt7tttwtwOOOgt99%9ay9%7t7t7htOwOOO",
"tttwh9hhhh99%9999hh%9%999a%%%hayayyahhayyyy7t9999y9999yaa9ayyh7tthht9%%%hhhhh,%hayyyyyyyyyyyattttthh%9hhh9tty9%aaya9th7thhtwtOOt",
"tOwth79h97h%h9%99a99999999999yyyyyayh7ydayy7g9y99999%9y99%9%9t7wtthw9%h9ah%h%fhhyaayyyyyyyyyhttttthh777ttyhty999y99977h77htwwttt",
"twttt77h%%9999999yayyyyyyydyyyayyyya%hydyay7O9yay99a9yayyay997hwttht9%999%hhh$h%yyyyyyyyyyd9#ttttthh7htth%t7a99ayy9%%7tt77wOtttw",
"twwtt99yyyyyyyyddddddddddddyyayayyyy97ydyyy%Oyayayyyyyyyaaaya97ttthwh77hh%%7hf%addyydddddd1ttttttth777tt77thy99yd9%9%htth7wtwwwt",
"ttwth9yayyyyayyddyyyyddodddyyya9yyyy97ydyyahO9a99%9yaaa99yaa9%hwtthh7h777%h773hydyayy1doodhwwtwtt#77h7tth7tha99yyy9a%7tth7wwwtww",
"7wtthaaayyyyaayddddooqqoddddyyayaaaa%7ayay97O%%%%%%%9%%%%9999%7wtthhh77h79%h7fhadddooqooo9Owtwtwtt777ttwththa9%9ya99hhh7wtwtwwtw",
"hwtt%a9yayaayaayyiyaoooooddd1yyay9a979yyaay7O9%%a99999%999y99%h%twtthhh7777t7h79ddyyooooywtwtww7wwhh7#twthhha9%9yya977hhwhtttwwt",
"7wwt99yayaaf,>>yyayyddddiodyyay9y9%hhhydayahOaaaayy9y9ayyyyyy9%%ttOwtthh7hwOh97adyydooodtwwtwtwttt777htth777y%%%y9997h7tttwwwtww",
"ttwt9ay9y90sXs,9yaydddddddddaay999f9h%yyaayhO9yayaa9yy%ayaya99a%ttOhtOhtwttthh77dayooio9ttttttwttwh777h7httha%%999ah%h7h7ttwtwtO",
"twtt%>a9>%2sOs29ayydddddddddyyyy999hh7ydyyytO9yaayyayay%99ya99%%twOhwt99ayyay9h7dydoioytththh7tttwh7wth7hhhha9999a%%h7tthhtwtOOO",
"hwwth,,23,2OOs*999aaddd1yd1yy1yy999%%9ddyyytOaayaaayaaa999y999%%ttOttddaydodoyh7a>ayodhtthtttttttwtthh77hhtta999a%977tttttwtwOtw",
"tttth2s3>%0Xsg,ya,y91dddyddyaaya9ahh9yydyyya9999ya9y%999a9y%9%%7ttOtwd99y9ayyah%y,yadhttthh7#tt#7wtttwtwhhwty99a%99%%7tttwwwtwwt",
"twtwhsO,>>0OsO;yyaaayyy1ydy9yyy999%99yyyayay99a99999999a%999%%77thOtta%99aaayht9yaadathtth777httww7wwtwtthtta9999a%%7tttttttwtww",
"twwt7Os3fhtOOOs>99aayayaaa%haya99af%9yyyyaatw9999999a9a%9a9a%%77thO#wy%9h79ad9t.ayaahttth7th77tt7wwttwwwthtty9a999%hhwtt#twtwtwt",
"ttw##wO,2stOgs2>y99yayyyy>,>a9y99%f99yyyayawg999a9a%a%%a%a%%9%7tt7OOt9h9aq%9y9,%dya%thttthwh7hh7ww7htttthhtha99999%%7tttt%ttwtww",
"twtthwt2OO2222>%y%9yyyyyyyyaaayy99%99ayyaayhOa999a%a%9a%99%%%7hwttOtwyh9dua7dahhyy9hhwtt#tth777htOthhhhh7htha9a99a%77twtwtwtwwwt",
"tww;.7swtOt77%9999%9aayyyy1yy9999%9a99yaa99tO%9%%%%%%%%%a%%tOtttttOtwd9%9y7aoa77a977hhtthht77th7tOt77wtthhtt9%%%%%htttgOOtwttttw",
"ttww7.77%77h%7%977%99yayayay9y9h99%999yy999tOa9999999a999%7tt7ththOtta9%tO%yda%hhh7wtwwwwwwhhhh7wth7wtwwhhtt9%9%%%%7htttOtwwwwtw",
"twt7%Ottthh777%%7h99yaaayaay9a9%%h%%%%99%99tO%%%%%%%%7%%%7ttttwtttwtthhttw9%99ht97twwtOtwtO7h77htwhhtwwt79tt999%%%httwtwOOOtOOOw",
"twwt2<ssOOtttt7h779yyayaayay9999777777%9h99tg%h%7%%%7%7%7%7ttwtwttwtt9%hh9aydaht%hwthhaaatthhh77tOthhttthatth%99777twOOtOOtOOttt",
"ttwtt,72sttttth7h9%99yaaay9a99a%h%%h779a%%%tO999%%%h%%%%99%htwwtttwwt999h9yaa97t9twth7a%9tthhhh7twhh7hh7h%htwtt7hhh7tttwOtttwOOO",
"7wtwt77ttt77;h7th777%%%99999a999aa9a99ayaaytOaayaa9yaaya9y9%97twthwtw99%%%%9a99t%twtth%7%hth9h7htwh7777h7thhht7w79%h7twtwtwwtOtw",
"hwww;ttttt#tt7h77hhh%%%%9yyyaya9yyay99yyyaatgayyyayaya9999a9997wttw7w9aaayy%9%a79hwgOwwwwwtthht7twh7h777hwtttthtt99ttwwtwOtwwOwt",
"ttwwtttt#77ttht7%hh7hhhh9%9%%9%7999ya9yyaya7tayaayaaayyy9yya9%htthwwO99yydd9%%9h9thtttttttth797htwh77hh77wtttthtt9%htOOOOOwtOwww",
"twtwwtttth7tt,thaa9yayyyayyayaayayayayyyyaay%9yayayyyyaayaayy9%tttwtOt7t799%h9%%9ttwttthhhttt>h7twth7h77wtwtwwhwty%7tOOOOwwOOOOt",
"7wtwthhhh7hhhe99dyaydddddddyyyaayayayayyayay%9a9yayyyyyayayaa99hthwtwthh79%7h9%79ttttwwtttttthh7twOwwOOtttwtwOhwta9htttOOtwttwOO",
"twtwth7hhh9haey9odydddoddddyyayaayadiyyyyaatO9yayayyyyyaayaya9%9thwttthyh999ya%%yttwwh%99twtthwttwOtttOtttwwtt7tta9%htttwtwOtOOO",
"twtwttth7h77tf9%ddayydddddd1yyyyaayaoiyyayat4yayaayayyyyyaaya999ttOtwt9y%9yayd99ywtwthtt7twtttwtttOtwwttttwtwwhOty97h7tOOttOOOOw",
"wtOtwtthh,7tt,%%dqdydddddddyyyy9aaayydyyayatg9aayaayyyyyyyyyyyyyttwttt%y9%yadd9aywwtwhtwhtt;thttttwOtwwhfrtttw7wta9%77twttwOOttO",
"77wwtwwO2fh7t,h9dyh9h.h9h.%h%hh7hyyydidyayy7Oyayayyyyyydyyyyaaaat7hhwt9y9%99dd99yOtwt7hh%tOOthtt;wOtttth33tttwhtta9h7twOOtOOOOgO",
"thwttwOgth7tt,%%da9aayaaayayayh77yyydoddyyyhOayaaayayaaayaaa9999th7httay99yyoda99wwwwhtwhtOOthtt7twtOww,200t;wtOty9ttttOOOwOOgOO",
"ttwwttOgt77wt,h9ddyyyydddddyyyattyyadodyayyhOa9y9yaaayayyayay999t%a9%t9a99ydodyayOtwttwwttwt77ttttOOtOOh,,0h7wttty9htttttttwOOtO",
"ttwttwwOw7htt,h9doddyyddddyyya>tt1yadoyyaaahOyayaayayayaayay999%taay%hyayyayyyyyyOwtwttwttwtthtttwtwtOOt22tttttwhdyhhhhwwttttttO",
"ttOwtwOgttttt,h%ddyddddddd1yyy9ttya9ydyyyyy7Oayyyyyyyyyyyyyyaa%7tayaa9yyaayddayddOtww7wwttOOwhwt9hhwOtOOOOOgOwOghy97777tth7tttwO",
"twwwttOgtt7tt,%9oodyddddddyyyyahhyyaaddyyyyhOyyyyyyyyyyyyayyyy%7tyyyayyyyydyyyyddOwtwhttttwtththdyy9OOOOwwOwwtOO%y9hhh7wttttwwtO",
"ttwttwOgtt7#t,h9didddododddyyaahhyyyyddda1ytOyyyyyyyyyyy9ayyya9htyyyyyddyayayyyyyOwwttwwtwttthwhyyy9OOggtOOtwOwO7y9tttttwOOOOOOO",
"htwwttOOtt7tt,%%dddddod1ddddyyyhhdyyddddyyyhtyyyyyyyy1yaaayyaaahtydyyyddyyyyy1yyyOOOOttOtwOwwtOhdyd9OtOw7tt7twggty9twwwwtwtttOOO",
"ttwwtwwOt77tt,h%ddddddddddyyyyah7dayd1ayyyddayyydyy1dyyyyyyaaa9%tayyyddd1yyyydddywOwOtOwttwOttwtyyy9OwOttOw7ttggtd9twttttttttOwg",
"wwOtttOOw7htt,hhdoddoo1idy1yy1ah7dyyddydyydy9yyyy1ydddddyyyyyaa%taay1yydyyyyyyyyywtwt7ww7twwttwtydd9Otwwtwt77wOgtd9twtttttthhtht",
"ttwwttOOtt7tt,h%ddddddoooodyyaahhdyydoddyyyhOyyyyyyddidayy1yya9%tyyyyyydydyyyyddytwww7twttwtwtthddd9OOOtwOttwwggty9tttttt#tthtth",
"ttwwthOOt7ht#f7%ood1odddooddddyh7dyydddd1ddhOayyyyyyyayyyyyyya9%tayyyyydyy1adddoa#wtwt00twOOwtOhddd9OwOtwOttOwggty9tthh#7whh7tht",
"ttwt7%tOth7tt,7hoiddddddddddddahwyaydyayyyyhOayd1aydyyyyyydyyy9htyyyyyydyaaayyddyOOtOt0X2OggttOty1y9gOgOOOt7twg4ty9Ohtttthttwtwh",
"twwwt%tw777tt,haddddddddoddyyya7wyaydo9yyyyhOyyydyddy1yy1yyyya9%tyy111yd1yaayyyddwtwtt,t7twwttwhayy9OwOOtOt77tO4ty9t7ttw77htttt7",
"twOtttwOt7hwt,9%ddyddddddddyyyaw7dyydddd1dy9Oayyyyyyyaaaaaaaay9htya1aayyaayya1ydywwtwth%htwtththddd9OwOttww7htggtd9t7hhh7hhw7wth",
"ttOwttOwwhhtt,h%idd1ddddddd1yyahhdyyodddydyhOayaaaaaaaaaayyyaa9%tyayaaayaaaaayyy1w7twOOOwOttt7thaya9wttt%tttwwOO7y9t7777hhhtw7wh",
"thtwttOOt77tt,h9od9>dddddddyayahhdyyod1dyyyhOayayydyyyayaodiyy97taa1ya1a91a>a1ydywtttOttttttthttttttwwtt%wwtOwggty9thwtwth7wtwtw",
"77wtttOww7htt,h9iaay1ao1d1ya9y9hhyyaddyyadahOyaaayyyyyaaaydaya9htay>>1a>%,,;s,1yyttwt%hh%yhtttttwwOOOwOOwgt7twggty9whtwtw99ttwOt",
"h7twttOOt77#t3h9idayyyaayayyya9hhyy1ddddyyahwayyaya1yayaayiyya9ht>>,h>>>2XXsws,aahwwh97hhy9hhhtttttttttttt777tgg7ahw7ttwwh7wwwOO",
"7htwttOww77tt,%hdyadyyyyydayda9hhya9dyy1aaahwyyaadyyyaadyaaayy99t>,XXf>>$XXOg<,99t7wh%77h%h777thhttwwtttwth77tggty%tttwtOhhtOOOO",
"77htttOOt77tt,h7d>9h9yy9ayaaayahhya9yyyyaay9wyayyyyyydyyayyyya9ht,s,,>>>>,2ssw.>9wt7w9ht79hth7th7ttwttttttt7htgwtahwhtwwOttOOggw",
"h77tttOww77tt,hhdaaaayyayyy9yyahhiaydoayyyay9yaaayyaaaaaaaoddy9%t0Xss,>>11>sXO;9atwOthttt9htthwhhtththh7hwwtwtggta%w7ttwOttOOOgg",
"h7t#ttOOt77tt,h%dyaayyaaay9hydahhdayddddadaa9ayaaayayaayaaadya9htw,s22.>19hO<O;1ywtOt%tth%hth7h7wtt,wh977OttwwOOt9%th7ttttttOOOO",
"7htthtOww7wt7,7hda9aaayya>7.aa9tty9add1y9aahw9yayaaaayaayayy1ahhts2XX0X,y.twwO2>atttt9tth%hthhwhhtthw9yahwwtttOOt9hw7twwtwtOOggg",
"hhtwthOgw7htw,h9dy%aayayaaha9a9tty99dyaa9a9tO9a99yayaaaaayaaa97wt0X202Xw9,>,s2>>ahtwthwtthhwh%th7tt,whyh7Ot0twggt97ttttwOOOOOOgO",
"7httthOOO7ttw,7%dy99yayyyyyaay9tha99aa99h99tO99a99a99yayaaaa9htOts2000wOtht..>aaattwwhttth7thhth7tt;wttthOwt0t44ta7wtttwttOOwggO",
"hhtthtOg23ttt,h9d99%999a9999999h%y99y9a9h9htO9%%99%9a9yaa99a9htOt002#.wthah%h%9a%ttwwhttth7th7tttttwOtwwtOtttwggt%7wttwtOOOOOOgO",
"7%tth7tt7,ttt,h9d977hhh7hhhhhhhtha99ia99999tO99%%%9hh%9999%h77tO7httt;t7h7;;h79yhttwwhttt;7tthwtt;7tttttttttttOOt97ttttwtOOwg44O",
"77ttthth7tt#t,h%ddyyyyyayyyyyddyaaa9a9999%9tg9hh9%%h%%h9%hh%7htOth7ttt7.h7htt79y9wttththh%7thhtttttttwwwwOOtOtOtt%7OhhtwwOO4g&4g",
"h7hth77hh7hhhf99oyayyyayaaayddda9999y9999%%tg%%%%9%9%9%9%9%h77h9thhhh7h..%h7t%h9yh999999y999ay99hhh9hh7%%hhhhhhhh%7wthttttOgO4gg",
"77#t7hhh77h77f7%da9aayyayayaaayay999y99999%O&%9%%%%%%%999%%hh779t%%77hhh77h7h77%%9aaayyayaaya9999%%9%%%%%%hh%9%h%hhtwwwtwOOOO4gg",
"h7tttht7h7hwt,w7d99%99999a9999h9hh99%%9%777Og77h7hwth7hh7htttwOgt;.;#;.;;#;t7hh77%9%99999999999%%h%%h%hhhhh%hhhhhhtttwtwOOwOOOOO",
"77ttttth77htt,w%da%999yaaay999999999999h%99h%%%%hh%hhh%h%h%%97hOt.>9hh....7h%%9%9999a999999999%%9%999%9%9%%%%9h%h%tOOtOOOwOgOOOt",
"thwttth7wh7tttt%dy9yyyyyyyyayyayyyayaya99ya9yaaa99ya9yayaaaaa77wt9>..%%7%h%%%999ayayayayayyy999999999999999999a%%9hOtwOwOOOOgwOO"
};
